<?xml version="1.0" encoding="utf-8" standalone="no"?>
<!DOCTYPE svg PUBLIC "-//W3C//DTD SVG 1.1//EN"
  "http://www.w3.org/Graphics/SVG/1.1/DTD/svg11.dtd">
<svg xmlns:xlink="http://www.w3.org/1999/xlink" width="806.4pt" height="316.8pt" viewBox="0 0 806.4 316.8" xmlns="http://www.w3.org/2000/svg" version="1.1">
 <title>Spherical-interface conjugates depend on the incident and transmitted indices and the signed radius of curvature.</title>
 <metadata>
  <rdf:RDF xmlns:dc="http://purl.org/dc/elements/1.1/" xmlns:cc="http://creativecommons.org/ns#" xmlns:rdf="http://www.w3.org/1999/02/22-rdf-syntax-ns#">
   <cc:Work>
    <dc:type rdf:resource="http://purl.org/dc/dcmitype/StillImage"/>
    <dc:title>Spherical-interface conjugates depend on the incident and transmitted indices and the signed radius of curvature.</dc:title>
    <dc:description>Spherical-interface conjugates depend on the incident and transmitted indices and the signed radius of curvature.</dc:description>
    <dc:format>image/svg+xml</dc:format>
    <dc:creator>
     <cc:Agent>
      <dc:title>Matplotlib v3.10.8, https://matplotlib.org/</dc:title>
     </cc:Agent>
    </dc:creator>
   </cc:Work>
  </rdf:RDF>
 </metadata>
 <defs>
  <style type="text/css">*{stroke-linejoin: round; stroke-linecap: butt}</style>
 </defs>
 <g id="figure_1">
  <g id="patch_1">
   <path d="M 0 316.8
L 806.4 316.8
L 806.4 0
L 0 0
z
" style="fill: #ffffff"/>
  </g>
  <g id="axes_1">
   <g id="PathCollection_1">
    <defs>
     <path id="m48aaf004e7" d="M 0 3
C 0.795609 3 1.55874 2.683901 2.12132 2.12132
C 2.683901 1.55874 3 0.795609 3 0
C 3 -0.795609 2.683901 -1.55874 2.12132 -2.12132
C 1.55874 -2.683901 0.795609 -3 0 -3
C -0.795609 -3 -1.55874 -2.683901 -2.12132 -2.12132
C -2.683901 -1.55874 -3 -0.795609 -3 0
C -3 0.795609 -2.683901 1.55874 -2.12132 2.12132
C -1.55874 2.683901 -0.795609 3 0 3
z
" style="stroke: #c87916"/>
    </defs>
    <g clip-path="url(#p5b9c737c8b)">
     <use xlink:href="#m48aaf004e7" x="49.400212" y="181.853463" style="fill: #c87916; stroke: #c87916"/>
     <use xlink:href="#m48aaf004e7" x="281.400073" y="181.853463" style="fill: #c87916; stroke: #c87916"/>
     <use xlink:href="#m48aaf004e7" x="397.400003" y="181.853463" style="fill: #c87916; stroke: #c87916"/>
     <use xlink:href="#m48aaf004e7" x="745.399795" y="181.853463" style="fill: #c87916; stroke: #c87916"/>
    </g>
   </g>
   <g id="line2d_1">
    <path d="M 3.00024 181.853463
L 803.39976 181.853463
" clip-path="url(#p5b9c737c8b)" style="fill: none; stroke: #8a99a8; stroke-width: 0.8; stroke-linecap: square"/>
   </g>
   <g id="line2d_2">
    <path d="M 296.941117 269.817661
L 296.273677 268.040607
L 295.624101 266.263552
L 294.992051 264.486498
L 294.377204 262.709443
L 293.779252 260.932389
L 293.197907 259.155334
L 292.63289 257.37828
L 292.08394 255.601225
L 291.550806 253.824171
L 291.03325 252.047116
L 290.531047 250.270062
L 290.04398 248.493007
L 289.571844 246.715953
L 289.114445 244.938898
L 288.671597 243.161844
L 288.243121 241.384789
L 287.82885 239.607735
L 287.428623 237.83068
L 287.042287 236.053626
L 286.669697 234.276571
L 286.310715 232.499517
L 285.965209 230.722462
L 285.633053 228.945408
L 285.31413 227.168353
L 285.008327 225.391299
L 284.715537 223.614244
L 284.435658 221.83719
L 284.168595 220.060135
L 283.914258 218.283081
L 283.672561 216.506026
L 283.443423 214.728972
L 283.22677 212.951917
L 283.02253 211.174863
L 282.830636 209.397808
L 282.651027 207.620754
L 282.483646 205.843699
L 282.328438 204.066645
L 282.185355 202.28959
L 282.054351 200.512536
L 281.935386 198.735481
L 281.828422 196.958427
L 281.733426 195.181372
L 281.650368 193.404318
L 281.579224 191.627263
L 281.51997 189.850209
L 281.472588 188.073154
L 281.437065 186.2961
L 281.413389 184.519045
L 281.401552 182.741991
L 281.401552 180.964936
L 281.413389 179.187882
L 281.437065 177.410827
L 281.472588 175.633773
L 281.51997 173.856718
L 281.579224 172.079664
L 281.650368 170.302609
L 281.733426 168.525555
L 281.828422 166.7485
L 281.935386 164.971446
L 282.054351 163.194391
L 282.185355 161.417337
L 282.328438 159.640282
L 282.483646 157.863228
L 282.651027 156.086173
L 282.830636 154.309119
L 283.02253 152.532064
L 283.22677 150.75501
L 283.443423 148.977955
L 283.672561 147.200901
L 283.914258 145.423846
L 284.168595 143.646792
L 284.435658 141.869737
L 284.715537 140.092683
L 285.008327 138.315628
L 285.31413 136.538574
L 285.633053 134.761519
L 285.965209 132.984465
L 286.310715 131.20741
L 286.669697 129.430356
L 287.042287 127.653301
L 287.428623 125.876247
L 287.82885 124.099192
L 288.243121 122.322138
L 288.671597 120.545083
L 289.114445 118.768029
L 289.571844 116.990974
L 290.04398 115.21392
L 290.531047 113.436865
L 291.03325 111.659811
L 291.550806 109.882756
L 292.08394 108.105702
L 292.63289 106.328647
L 293.197907 104.551593
L 293.779252 102.774538
L 294.377204 100.997484
L 294.992051 99.220429
L 295.624101 97.443375
L 296.273677 95.66632
L 296.941117 93.889266
" clip-path="url(#p5b9c737c8b)" style="fill: none; stroke: #087f8c; stroke-width: 3; stroke-linecap: square"/>
   </g>
   <g id="line2d_3">
    <path d="M 49.400212 181.853463
L 288.737103 243.428402
L 745.399795 181.853463
" clip-path="url(#p5b9c737c8b)" style="fill: none; stroke: #2563a6; stroke-width: 1.6; stroke-linecap: square"/>
   </g>
   <g id="line2d_4">
    <path d="M 49.400212 181.853463
L 281.400073 181.853463
L 745.399795 181.853463
" clip-path="url(#p5b9c737c8b)" style="fill: none; stroke: #2563a6; stroke-width: 1.6; stroke-linecap: square"/>
   </g>
   <g id="line2d_5">
    <path d="M 49.400212 181.853463
L 288.737103 120.278525
L 745.399795 181.853463
" clip-path="url(#p5b9c737c8b)" style="fill: none; stroke: #2563a6; stroke-width: 1.6; stroke-linecap: square"/>
   </g>
   <g id="patch_2">
    <path d="M 464.250659 219.762715
Q 507.934881 213.872474 549.403088 208.281033
" style="fill: none; stroke: #2563a6; stroke-width: 2; stroke-linecap: round"/>
    <path d="M 544.748569 206.688725
L 549.403088 208.281033
L 545.33653 211.049264
" style="fill: none; stroke: #2563a6; stroke-width: 2; stroke-linecap: round"/>
   </g>
   <g id="patch_3">
    <path d="M 459.722212 181.853463
Q 504.122143 181.853463 546.286006 181.853463
" style="fill: none; stroke: #2563a6; stroke-width: 2; stroke-linecap: round"/>
    <path d="M 541.886006 179.653463
L 546.286006 181.853463
L 541.886006 184.053463
" style="fill: none; stroke: #2563a6; stroke-width: 2; stroke-linecap: round"/>
   </g>
   <g id="patch_4">
    <path d="M 464.250659 143.944212
Q 507.934881 149.834453 549.403088 155.425894
" style="fill: none; stroke: #2563a6; stroke-width: 2; stroke-linecap: round"/>
    <path d="M 545.33653 152.657663
L 549.403088 155.425894
L 544.748569 157.018202
" style="fill: none; stroke: #2563a6; stroke-width: 2; stroke-linecap: round"/>
   </g>
   <g id="text_1">
    <text style="font-size: 10px; font-family: 'DejaVu Sans', 'Bitstream Vera Sans', 'Computer Modern Sans Serif', 'Lucida Grande', 'Verdana', 'Geneva', 'Lucid', 'Arial', 'Helvetica', 'Avant Garde', sans-serif; text-anchor: start; fill: #24384b" x="34.400212" y="201.853463" transform="rotate(-0 34.400212 201.853463)">object</text>
   </g>
   <g id="text_2">
    <text style="font-size: 10px; font-family: 'DejaVu Sans', 'Bitstream Vera Sans', 'Computer Modern Sans Serif', 'Lucida Grande', 'Verdana', 'Geneva', 'Lucid', 'Arial', 'Helvetica', 'Avant Garde', sans-serif; text-anchor: start; fill: #24384b" x="266.400073" y="201.853463" transform="rotate(-0 266.400073 201.853463)">vertex</text>
   </g>
   <g id="text_3">
    <text style="font-size: 10px; font-family: 'DejaVu Sans', 'Bitstream Vera Sans', 'Computer Modern Sans Serif', 'Lucida Grande', 'Verdana', 'Geneva', 'Lucid', 'Arial', 'Helvetica', 'Avant Garde', sans-serif; text-anchor: start; fill: #24384b" x="382.400003" y="201.853463" transform="rotate(-0 382.400003 201.853463)">C: R = +20 cm</text>
   </g>
   <g id="text_4">
    <text style="font-size: 10px; font-family: 'DejaVu Sans', 'Bitstream Vera Sans', 'Computer Modern Sans Serif', 'Lucida Grande', 'Verdana', 'Geneva', 'Lucid', 'Arial', 'Helvetica', 'Avant Garde', sans-serif; text-anchor: start; fill: #24384b" x="730.399795" y="201.853463" transform="rotate(-0 730.399795 201.853463)">image</text>
   </g>
   <g id="text_5">
    <text style="font-size: 10px; font-family: 'DejaVu Sans', 'Bitstream Vera Sans', 'Computer Modern Sans Serif', 'Lucida Grande', 'Verdana', 'Geneva', 'Lucid', 'Arial', 'Helvetica', 'Avant Garde', sans-serif; text-anchor: start; fill: #24384b" x="112.400177" y="69.296426" transform="rotate(-0 112.400177 69.296426)">n = 1; object distance 40 cm</text>
   </g>
   <g id="text_6">
    <text style="font-size: 10px; font-family: 'DejaVu Sans', 'Bitstream Vera Sans', 'Computer Modern Sans Serif', 'Lucida Grande', 'Verdana', 'Geneva', 'Lucid', 'Arial', 'Helvetica', 'Avant Garde', sans-serif; text-anchor: start; fill: #24384b" x="431.399986" y="69.296426" transform="rotate(-0 431.399986 69.296426)">n = 2; image distance 80 cm</text>
   </g>
   <g id="text_7">
    <text style="font-size: 10px; font-family: 'DejaVu Sans', 'Bitstream Vera Sans', 'Computer Modern Sans Serif', 'Lucida Grande', 'Verdana', 'Geneva', 'Lucid', 'Arial', 'Helvetica', 'Avant Garde', sans-serif; text-anchor: start; fill: #24384b" x="112.400177" y="280.410501" transform="rotate(-0 112.400177 280.410501)">Paraxial conjugates: spherical aberration is not included.</text>
   </g>
  </g>
  <g id="text_8">
   <text style="font-weight: 700; font-size: 15px; font-family: 'DejaVu Sans', 'Bitstream Vera Sans', 'Computer Modern Sans Serif', 'Lucida Grande', 'Verdana', 'Geneva', 'Lucid', 'Arial', 'Helvetica', 'Avant Garde', sans-serif; text-anchor: middle; fill: #193047" x="403.2" y="14.397896" transform="rotate(-0 403.2 14.397896)">Spherical refraction: Problem 4.68</text>
  </g>
 </g>
 <defs>
  <clipPath id="p5b9c737c8b">
   <rect x="3.00024" y="23.517908" width="800.39952" height="290.281852"/>
  </clipPath>
 </defs>
</svg>
