ISO-10303-21;
HEADER;
FILE_DESCRIPTION (( 'STEP AP203' ),
    '1' );
FILE_NAME ('Web Model 32336_32336.step',
    '2018-08-23T14:50:37',
    ( '' ),
    ( '' ),
    'SwSTEP 2.0',
    'SolidWorks 2016',
    '' );
FILE_SCHEMA (( 'CONFIG_CONTROL_DESIGN' ));
ENDSEC;

DATA;
#1 = LINE ( 'NONE', #39, #43 ) ;
#2 = ORIENTED_EDGE ( 'NONE', *, *, #9, .F. ) ;
#3 = VECTOR ( 'NONE', #17, 999.9999999999998900 ) ;
#4 = DATE_AND_TIME ( #66, #144 ) ;
#5 = LOCAL_TIME ( 10, 50, 37.00000000000000000, #110 ) ;
#6 = ORIENTED_EDGE ( 'NONE', *, *, #155, .F. ) ;
#7 = AXIS2_PLACEMENT_3D ( 'NONE', #177, #123, #16 ) ;
#8 = ORIENTED_EDGE ( 'NONE', *, *, #9, .T. ) ;
#9 = EDGE_CURVE ( 'NONE', #124, #76, #100, .T. ) ;
#10 = CARTESIAN_POINT ( 'NONE',  ( 17.67766952966378100, -2.164890140588744200E-015, -12.50000000000000000 ) ) ;
#11 = CARTESIAN_POINT ( 'NONE',  ( 1.005707936120653700E-015, 17.67766952966359300, 12.50000000000000000 ) ) ;
#12 = CC_DESIGN_APPROVAL ( #143, ( #166 ) ) ;
#13 = PERSON_AND_ORGANIZATION ( #63, #83 ) ;
#14 = ORIENTED_EDGE ( 'NONE', *, *, #114, .T. ) ;
#15 = DIRECTION ( 'NONE',  ( 0.0000000000000000000, 0.0000000000000000000, -1.000000000000000000 ) ) ;
#16 = DIRECTION ( 'NONE',  ( -1.000000000000000000, 6.123233995736764800E-017, 0.0000000000000000000 ) ) ;
#17 = DIRECTION ( 'NONE',  ( -0.7071067811865512400, -0.7071067811865439100, 0.0000000000000000000 ) ) ;
#18 = COORDINATED_UNIVERSAL_TIME_OFFSET ( 5, 0, .BEHIND. ) ;
#19 = APPROVAL_STATUS ( 'not_yet_approved' ) ;
#20 = VERTEX_POINT ( 'NONE', #87 ) ;
#21 = CC_DESIGN_PERSON_AND_ORGANIZATION_ASSIGNMENT ( #25, #109, ( #163 ) ) ;
#22 = DIRECTION ( 'NONE',  ( 0.0000000000000000000, 0.0000000000000000000, 1.000000000000000000 ) ) ;
#23 = CC_DESIGN_APPROVAL ( #204, ( #163 ) ) ;
#24 = AXIS2_PLACEMENT_3D ( 'NONE', #11, #50, #147 ) ;
#25 = PERSON_AND_ORGANIZATION ( #63, #83 ) ;
#26 = CC_DESIGN_APPROVAL ( #202, ( #176 ) ) ;
#27 = EDGE_CURVE ( 'NONE', #76, #84, #44, .T. ) ;
#28 = VECTOR ( 'NONE', #139, 1000.000000000000000 ) ;
#29 = ORIENTED_EDGE ( 'NONE', *, *, #111, .F. ) ;
#30 = DIRECTION ( 'NONE',  ( -1.000000000000000000, 0.0000000000000000000, 0.0000000000000000000 ) ) ;
#31 = APPROVAL_PERSON_ORGANIZATION ( #128, #143, #108 ) ;
#32 = CARTESIAN_POINT ( 'NONE',  ( 17.67766952966378100, -2.164890140588744200E-015, 12.50000000000000000 ) ) ;
#33 = ADVANCED_FACE ( 'NONE', ( #171 ), #67, .F. ) ;
#34 = DIRECTION ( 'NONE',  ( -0.7071067811865512400, -0.7071067811865439100, 0.0000000000000000000 ) ) ;
#35 = DIRECTION ( 'NONE',  ( -1.000000000000000000, 0.0000000000000000000, 0.0000000000000000000 ) ) ;
#36 = DATE_AND_TIME ( #132, #148 ) ;
#37 = VECTOR ( 'NONE', #193, 1000.000000000000000 ) ;
#38 = CARTESIAN_POINT ( 'NONE',  ( 17.67766952966378100, -2.164890140588744200E-015, 12.50000000000000000 ) ) ;
#39 = CARTESIAN_POINT ( 'NONE',  ( 17.67766952966378100, -2.164890140588744200E-015, -12.50000000000000000 ) ) ;
#40 = CC_DESIGN_PERSON_AND_ORGANIZATION_ASSIGNMENT ( #46, #203, ( #176 ) ) ;
#41 =( LENGTH_UNIT ( ) NAMED_UNIT ( * ) SI_UNIT ( .MILLI., .METRE. ) );
#42 = DIRECTION ( 'NONE',  ( -0.7071067811865512400, 0.7071067811865439100, 0.0000000000000000000 ) ) ;
#43 = VECTOR ( 'NONE', #200, 1000.000000000000000 ) ;
#44 = LINE ( 'NONE', #32, #134 ) ;
#45 = AXIS2_PLACEMENT_3D ( 'NONE', #94, #22, #69 ) ;
#46 = PERSON_AND_ORGANIZATION ( #63, #83 ) ;
#47 = ORIENTED_EDGE ( 'NONE', *, *, #159, .F. ) ;
#48 = CC_DESIGN_DATE_AND_TIME_ASSIGNMENT ( #36, #91, ( #176 ) ) ;
#49 = FACE_OUTER_BOUND ( 'NONE', #142, .T. ) ;
#50 = DIRECTION ( 'NONE',  ( 0.7071067811865439100, -0.7071067811865512400, 0.0000000000000000000 ) ) ;
#51 = DIRECTION ( 'NONE',  ( 1.000000000000000000, -6.123233995736764800E-017, 0.0000000000000000000 ) ) ;
#52 = PLANE ( 'NONE',  #73 ) ;
#53 = DESIGN_CONTEXT ( 'detailed design', #150, 'design' ) ;
#54 = SHAPE_DEFINITION_REPRESENTATION ( #61, #117 ) ;
#55 = ORIENTED_EDGE ( 'NONE', *, *, #187, .T. ) ;
#56 = PLANE ( 'NONE',  #64 ) ;
#57 = APPLICATION_CONTEXT ( 'configuration controlled 3d designs of mechanical parts and assemblies' ) ;
#58 = LINE ( 'NONE', #72, #3 ) ;
#59 = APPROVAL_ROLE ( '' ) ;
#60 = LINE ( 'NONE', #105, #138 ) ;
#61 = PRODUCT_DEFINITION_SHAPE ( 'NONE', 'NONE',  #176 ) ;
#62 = DATE_AND_TIME ( #173, #5 ) ;
#63 = PERSON ( 'UNSPECIFIED', 'UNSPECIFIED', 'UNSPECIFIED', ('UNSPECIFIED'), ('UNSPECIFIED'), ('UNSPECIFIED') ) ;
#64 = AXIS2_PLACEMENT_3D ( 'NONE', #182, #126, #93 ) ;
#65 = ORIENTED_EDGE ( 'NONE', *, *, #187, .F. ) ;
#66 = CALENDAR_DATE ( 2018, 23, 8 ) ;
#67 = PLANE ( 'NONE',  #7 ) ;
#68 = LOCAL_TIME ( 10, 50, 37.00000000000000000, #137 ) ;
#69 = DIRECTION ( 'NONE',  ( 1.000000000000000000, 0.0000000000000000000, 0.0000000000000000000 ) ) ;
#70 = ORIENTED_EDGE ( 'NONE', *, *, #27, .F. ) ;
#71 = CARTESIAN_POINT ( 'NONE',  ( -17.67766952966378100, 0.0000000000000000000, -12.50000000000000000 ) ) ;
#72 = CARTESIAN_POINT ( 'NONE',  ( 1.005707936120653700E-015, 17.67766952966359300, -12.50000000000000000 ) ) ;
#73 = AXIS2_PLACEMENT_3D ( 'NONE', #194, #15, #30 ) ;
#74 = CALENDAR_DATE ( 2018, 23, 8 ) ;
#75 = PERSON_AND_ORGANIZATION ( #63, #83 ) ;
#76 = VERTEX_POINT ( 'NONE', #196 ) ;
#77 = CC_DESIGN_PERSON_AND_ORGANIZATION_ASSIGNMENT ( #13, #201, ( #163 ) ) ;
#78 = LINE ( 'NONE', #131, #28 ) ;
#79 = DIRECTION ( 'NONE',  ( -0.0000000000000000000, -0.0000000000000000000, -1.000000000000000000 ) ) ;
#80 = MECHANICAL_CONTEXT ( 'NONE', #57, 'mechanical' ) ;
#81 = VERTEX_POINT ( 'NONE', #102 ) ;
#82 = APPROVAL_DATE_TIME ( #4, #143 ) ;
#83 = ORGANIZATION ( 'UNSPECIFIED', 'UNSPECIFIED', '' ) ;
#84 = VERTEX_POINT ( 'NONE', #10 ) ;
#85 = PRODUCT_RELATED_PRODUCT_CATEGORY ( 'detail', '', ( #88 ) ) ;
#86 = ORIENTED_EDGE ( 'NONE', *, *, #140, .F. ) ;
#87 = CARTESIAN_POINT ( 'NONE',  ( 1.005707936120653700E-015, 17.67766952966359300, -12.50000000000000000 ) ) ;
#88 = PRODUCT ( 'Web Model 32336_32336', 'Web Model 32336_32336', '', ( #80 ) ) ;
#89 = CARTESIAN_POINT ( 'NONE',  ( -17.67766952966378100, 0.0000000000000000000, 12.50000000000000000 ) ) ;
#90 =( NAMED_UNIT ( * ) PLANE_ANGLE_UNIT ( ) SI_UNIT ( $, .RADIAN. ) );
#91 = DATE_TIME_ROLE ( 'creation_date' ) ;
#92 = FACE_OUTER_BOUND ( 'NONE', #185, .T. ) ;
#93 = DIRECTION ( 'NONE',  ( 0.7071067811865512400, -0.7071067811865439100, 0.0000000000000000000 ) ) ;
#94 = CARTESIAN_POINT ( 'NONE',  ( 0.0000000000000000000, 0.0000000000000000000, 0.0000000000000000000 ) ) ;
#95 = APPLICATION_PROTOCOL_DEFINITION ( 'international standard', 'config_control_design', 1994, #150 ) ;
#96 = VECTOR ( 'NONE', #34, 999.9999999999998900 ) ;
#97 = AXIS2_PLACEMENT_3D ( 'NONE', #125, #133, #35 ) ;
#98 = CLOSED_SHELL ( 'NONE', ( #135, #33, #162, #101, #120 ) ) ;
#99 = APPROVAL_PERSON_ORGANIZATION ( #75, #202, #152 ) ;
#100 = LINE ( 'NONE', #89, #37 ) ;
#101 = ADVANCED_FACE ( 'NONE', ( #130 ), #122, .F. ) ;
#102 = CARTESIAN_POINT ( 'NONE',  ( 1.005707936120653700E-015, 17.67766952966359300, 12.50000000000000000 ) ) ;
#103 = CARTESIAN_POINT ( 'NONE',  ( 1.005707936120653700E-015, 17.67766952966359300, 12.50000000000000000 ) ) ;
#104 = COORDINATED_UNIVERSAL_TIME_OFFSET ( 5, 0, .BEHIND. ) ;
#105 = CARTESIAN_POINT ( 'NONE',  ( -17.67766952966378100, 0.0000000000000000000, -12.50000000000000000 ) ) ;
#106 = APPROVAL_PERSON_ORGANIZATION ( #183, #204, #59 ) ;
#107 = PERSON_AND_ORGANIZATION_ROLE ( 'classification_officer' ) ;
#108 = APPROVAL_ROLE ( '' ) ;
#109 = PERSON_AND_ORGANIZATION_ROLE ( 'creator' ) ;
#110 = COORDINATED_UNIVERSAL_TIME_OFFSET ( 5, 0, .BEHIND. ) ;
#111 = EDGE_CURVE ( 'NONE', #151, #84, #60, .T. ) ;
#112 = VECTOR ( 'NONE', #79, 1000.000000000000000 ) ;
#113 = ORIENTED_EDGE ( 'NONE', *, *, #111, .T. ) ;
#114 = EDGE_CURVE ( 'NONE', #81, #124, #146, .T. ) ;
#115 = APPROVAL_DATE_TIME ( #62, #202 ) ;
#116 = APPROVAL_DATE_TIME ( #141, #204 ) ;
#117 = ADVANCED_BREP_SHAPE_REPRESENTATION ( 'Web Model 32336_32336', ( #190, #45 ), #189 ) ;
#118 = ORIENTED_EDGE ( 'NONE', *, *, #159, .T. ) ;
#119 = PLANE ( 'NONE',  #24 ) ;
#120 = ADVANCED_FACE ( 'NONE', ( #92 ), #52, .T. ) ;
#121 = CARTESIAN_POINT ( 'NONE',  ( -17.67766952966378100, 0.0000000000000000000, 12.50000000000000000 ) ) ;
#122 = PLANE ( 'NONE',  #97 ) ;
#123 = DIRECTION ( 'NONE',  ( 6.123233995736764800E-017, 1.000000000000000000, -0.0000000000000000000 ) ) ;
#124 = VERTEX_POINT ( 'NONE', #121 ) ;
#125 = CARTESIAN_POINT ( 'NONE',  ( 0.0000000000000000000, 0.0000000000000000000, 12.50000000000000000 ) ) ;
#126 = DIRECTION ( 'NONE',  ( -0.7071067811865439100, -0.7071067811865512400, 0.0000000000000000000 ) ) ;
#127 = CARTESIAN_POINT ( 'NONE',  ( -17.67766952966378100, 0.0000000000000000000, 12.50000000000000000 ) ) ;
#128 = PERSON_AND_ORGANIZATION ( #63, #83 ) ;
#129 = EDGE_LOOP ( 'NONE', ( #14, #8, #192 ) ) ;
#130 = FACE_OUTER_BOUND ( 'NONE', #129, .T. ) ;
#131 = CARTESIAN_POINT ( 'NONE',  ( 1.005707936120653700E-015, 17.67766952966359300, 12.50000000000000000 ) ) ;
#132 = CALENDAR_DATE ( 2018, 23, 8 ) ;
#133 = DIRECTION ( 'NONE',  ( 0.0000000000000000000, 0.0000000000000000000, -1.000000000000000000 ) ) ;
#134 = VECTOR ( 'NONE', #195, 1000.000000000000000 ) ;
#135 = ADVANCED_FACE ( 'NONE', ( #49 ), #119, .F. ) ;
#136 =( NAMED_UNIT ( * ) SI_UNIT ( $, .STERADIAN. ) SOLID_ANGLE_UNIT ( ) );
#137 = COORDINATED_UNIVERSAL_TIME_OFFSET ( 5, 0, .BEHIND. ) ;
#138 = VECTOR ( 'NONE', #51, 1000.000000000000000 ) ;
#139 = DIRECTION ( 'NONE',  ( -0.0000000000000000000, -0.0000000000000000000, -1.000000000000000000 ) ) ;
#140 = EDGE_CURVE ( 'NONE', #20, #151, #58, .T. ) ;
#141 = DATE_AND_TIME ( #184, #197 ) ;
#142 = EDGE_LOOP ( 'NONE', ( #179, #65, #158, #161 ) ) ;
#143 = APPROVAL ( #19, 'UNSPECIFIED' ) ;
#144 = LOCAL_TIME ( 10, 50, 37.00000000000000000, #104 ) ;
#145 = PERSON_AND_ORGANIZATION ( #63, #83 ) ;
#146 = LINE ( 'NONE', #103, #96 ) ;
#147 = DIRECTION ( 'NONE',  ( 0.7071067811865512400, 0.7071067811865439100, 0.0000000000000000000 ) ) ;
#148 = LOCAL_TIME ( 10, 50, 37.00000000000000000, #18 ) ;
#149 = UNCERTAINTY_MEASURE_WITH_UNIT (LENGTH_MEASURE( 1.000000000000000100E-005 ), #41, 'distance_accuracy_value', 'NONE');
#150 = APPLICATION_CONTEXT ( 'configuration controlled 3d designs of mechanical parts and assemblies' ) ;
#151 = VERTEX_POINT ( 'NONE', #71 ) ;
#152 = APPROVAL_ROLE ( '' ) ;
#153 = PERSON_AND_ORGANIZATION_ROLE ( 'design_owner' ) ;
#154 = FACE_OUTER_BOUND ( 'NONE', #164, .T. ) ;
#155 = EDGE_CURVE ( 'NONE', #81, #20, #78, .T. ) ;
#156 = CC_DESIGN_PERSON_AND_ORGANIZATION_ASSIGNMENT ( #145, #107, ( #166 ) ) ;
#157 = LINE ( 'NONE', #38, #191 ) ;
#158 = ORIENTED_EDGE ( 'NONE', *, *, #114, .F. ) ;
#159 = EDGE_CURVE ( 'NONE', #84, #20, #1, .T. ) ;
#160 = CC_DESIGN_DATE_AND_TIME_ASSIGNMENT ( #170, #199, ( #166 ) ) ;
#161 = ORIENTED_EDGE ( 'NONE', *, *, #155, .T. ) ;
#162 = ADVANCED_FACE ( 'NONE', ( #154 ), #56, .F. ) ;
#163 = PRODUCT_DEFINITION_FORMATION_WITH_SPECIFIED_SOURCE ( 'ANY', '', #88, .NOT_KNOWN. ) ;
#164 = EDGE_LOOP ( 'NONE', ( #118, #6, #172, #198 ) ) ;
#165 = LINE ( 'NONE', #127, #112 ) ;
#166 = SECURITY_CLASSIFICATION ( '', '', #167 ) ;
#167 = SECURITY_CLASSIFICATION_LEVEL ( 'unclassified' ) ;
#168 = APPROVAL_STATUS ( 'not_yet_approved' ) ;
#169 = CC_DESIGN_SECURITY_CLASSIFICATION ( #166, ( #163 ) ) ;
#170 = DATE_AND_TIME ( #74, #68 ) ;
#171 = FACE_OUTER_BOUND ( 'NONE', #174, .T. ) ;
#172 = ORIENTED_EDGE ( 'NONE', *, *, #175, .F. ) ;
#173 = CALENDAR_DATE ( 2018, 23, 8 ) ;
#174 = EDGE_LOOP ( 'NONE', ( #113, #70, #2, #55 ) ) ;
#175 = EDGE_CURVE ( 'NONE', #76, #81, #157, .T. ) ;
#176 = PRODUCT_DEFINITION ( 'UNKNOWN', '', #163, #53 ) ;
#177 = CARTESIAN_POINT ( 'NONE',  ( -17.67766952966378100, 0.0000000000000000000, 12.50000000000000000 ) ) ;
#178 = COORDINATED_UNIVERSAL_TIME_OFFSET ( 5, 0, .BEHIND. ) ;
#179 = ORIENTED_EDGE ( 'NONE', *, *, #140, .T. ) ;
#180 = APPROVAL_STATUS ( 'not_yet_approved' ) ;
#181 = APPLICATION_PROTOCOL_DEFINITION ( 'international standard', 'config_control_design', 1994, #57 ) ;
#182 = CARTESIAN_POINT ( 'NONE',  ( 17.67766952966378100, -2.164890140588744200E-015, 12.50000000000000000 ) ) ;
#183 = PERSON_AND_ORGANIZATION ( #63, #83 ) ;
#184 = CALENDAR_DATE ( 2018, 23, 8 ) ;
#185 = EDGE_LOOP ( 'NONE', ( #86, #47, #29 ) ) ;
#186 = CC_DESIGN_PERSON_AND_ORGANIZATION_ASSIGNMENT ( #188, #153, ( #88 ) ) ;
#187 = EDGE_CURVE ( 'NONE', #124, #151, #165, .T. ) ;
#188 = PERSON_AND_ORGANIZATION ( #63, #83 ) ;
#189 =( GEOMETRIC_REPRESENTATION_CONTEXT ( 3 ) GLOBAL_UNCERTAINTY_ASSIGNED_CONTEXT ( ( #149 ) ) GLOBAL_UNIT_ASSIGNED_CONTEXT ( ( #41, #90, #136 ) ) REPRESENTATION_CONTEXT ( 'NONE', 'WORKASPACE' ) );
#190 = MANIFOLD_SOLID_BREP ( 'Boss-Extrude1', #98 ) ;
#191 = VECTOR ( 'NONE', #42, 1000.000000000000000 ) ;
#192 = ORIENTED_EDGE ( 'NONE', *, *, #175, .T. ) ;
#193 = DIRECTION ( 'NONE',  ( 1.000000000000000000, -6.123233995736764800E-017, 0.0000000000000000000 ) ) ;
#194 = CARTESIAN_POINT ( 'NONE',  ( 0.0000000000000000000, 0.0000000000000000000, -12.50000000000000000 ) ) ;
#195 = DIRECTION ( 'NONE',  ( -0.0000000000000000000, -0.0000000000000000000, -1.000000000000000000 ) ) ;
#196 = CARTESIAN_POINT ( 'NONE',  ( 17.67766952966378100, -2.164890140588744200E-015, 12.50000000000000000 ) ) ;
#197 = LOCAL_TIME ( 10, 50, 37.00000000000000000, #178 ) ;
#198 = ORIENTED_EDGE ( 'NONE', *, *, #27, .T. ) ;
#199 = DATE_TIME_ROLE ( 'classification_date' ) ;
#200 = DIRECTION ( 'NONE',  ( -0.7071067811865512400, 0.7071067811865439100, 0.0000000000000000000 ) ) ;
#201 = PERSON_AND_ORGANIZATION_ROLE ( 'design_supplier' ) ;
#202 = APPROVAL ( #180, 'UNSPECIFIED' ) ;
#203 = PERSON_AND_ORGANIZATION_ROLE ( 'creator' ) ;
#204 = APPROVAL ( #168, 'UNSPECIFIED' ) ;
ENDSEC;
END-ISO-10303-21;
