<svg xmlns="http://www.w3.org/2000/svg" width="1200" height="560" viewBox="0 0 1200 560" role="img" aria-labelledby="title desc" data-category="refracting" data-figure="3">
  <title id="title">Figure 3 — Exercise 1.2-2: One spherical refracting boundary</title>
  <desc id="desc">Figure 3, a concept diagram for Exercise 1.2-2, One spherical refracting boundary. The input, physical model, output, variables, and verification method are labeled.</desc>
  <defs>
    <style>
      .bg{fill:#f7fafc}.card{fill:#fff;stroke:#b9c7d6;stroke-width:2}.band{fill:#eaf2f8}.figureid{font:700 14px sans-serif;fill:#286f9e;letter-spacing:1.2px}.head{font:700 25px sans-serif;fill:#18324a}.sub{font:17px sans-serif;fill:#486581}.tag{font:700 16px sans-serif;fill:#286f9e;letter-spacing:1px}.label{font:700 20px sans-serif;fill:#243b53;text-anchor:middle}.legend{font:18px sans-serif;fill:#334e68}.check{font:17px sans-serif;fill:#486581}.accent{fill:none;stroke:#d9485f;stroke-width:5;stroke-linecap:round;stroke-linejoin:round}.accent2{fill:none;stroke:#8b5cf6;stroke-width:4;stroke-linecap:round;stroke-linejoin:round}.optic{fill:none;stroke:#286f9e;stroke-width:5}.thin{fill:none;stroke:#61788a;stroke-width:3}.axis{fill:none;stroke:#8295a5;stroke-width:2}.point{fill:#173f5f}.iconbox{fill:#edf7ff;stroke:#286f9e;stroke-width:3}.opticfill{fill:#286f9e}.layer1{fill:#d9ecff;stroke:#286f9e;stroke-width:2}.layer2{fill:#e7f7ee;stroke:#2b7a78;stroke-width:2}.icontext{font:italic 22px serif;fill:#6d28d9}.var{font:italic 20px serif;fill:#54278f;text-anchor:middle;paint-order:stroke;stroke:#fff;stroke-width:5px;stroke-linejoin:round}.smallvar{font-size:17px}.callout{fill:none;stroke:#54278f;stroke-width:2}.tick{fill:none;stroke:#54278f;stroke-width:2}.flow{stroke:#334e68;stroke-width:3;marker-end:url(#arrow)}
    </style>
    <marker id="arrow" markerUnits="userSpaceOnUse" markerWidth="13" markerHeight="13" refX="13" refY="6.5" orient="auto"><path d="M0,0 L13,6.5 L0,13 Z" fill="#334e68"/></marker>
  </defs>
  <rect class="bg" width="1200" height="560" rx="18"/>
  <text class="figureid" x="55" y="25">FIGURE 3</text>
  <text class="head" x="55" y="55">One spherical refracting boundary</text>
  <text class="sub" x="55" y="84">Exercise 1.2-2 • illustrated calculation map</text>

  <rect class="card" x="45" y="120" width="300" height="295" rx="16"/>
  <rect class="card" x="450" y="120" width="315" height="295" rx="16"/>
  <rect class="card" x="855" y="120" width="300" height="295" rx="16"/>
  <text class="tag" x="70" y="153">GIVEN / DEFINITIONS</text>
  <text class="tag" x="475" y="153">MODEL / OPERATION</text>
  <text class="tag" x="880" y="153">RESULT / INTERPRETATION</text>
  <text class="label" x="195"><tspan x="195" y="272">object and curved</tspan><tspan x="195" y="299">interface</tspan></text>
  <text class="label" x="607"><tspan x="607" y="377">Snell refraction at height</tspan><tspan x="607" y="404">y</tspan></text>
  <text class="label" x="1005"><tspan x="1005" y="285">paraxial image point</tspan></text>
  <line class="flow" x1="345" y1="270" x2="440" y2="270"/>
  <line class="flow" x1="765" y1="270" x2="845" y2="270"/>
  <path class="optic" d="M665 185 Q610 270 665 355"/><line class="axis" x1="475" y1="270" x2="740" y2="270" stroke-dasharray="8 7"/><path class="accent" d="M480 205 L610 270 L738 315"/><path class="accent2" d="M566 270 A44 44 0 0 1 571 250 M654 270 A44 44 0 0 1 651 285"/><line class="callout" x1="610" y1="270" x2="720" y2="270"/>
  <g id="variable-labels"><text class="var" x="500" y="190">n₁</text><text class="var" x="700" y="342">n₂</text><text class="var" x="548" y="245">θ₁</text><text class="var" x="670" y="300">θ₂</text><line class="callout" x1="595" y1="270" x2="595" y2="330"/><text class="var" x="582" y="312">y</text><text class="var" x="690" y="260">R</text><text class="var smallvar" x="530" y="325">z₁</text><text class="var smallvar" x="710" y="325">z₂</text></g>

  <rect class="band" x="45" y="440" width="1110" height="85" rx="12"/>
  <text class="legend" x="65" y="474">Variables labeled on model — n₁,n₂: indices • θ₁,θ₂: normal-referenced angles • y: height • R: radius • z₁,z₂: conjugates</text>
  <text class="check" x="65" y="507">Independent check — bent ray, angle orientation, and spherical-surface imaging equation</text>
</svg>
