SolidWorks IGES file using analytic representation for surfaces         S      1
1H,,1H;,15HWeb Model 31051,67HC:\swviews\EO Production Vault\Web Models\G      1
Web Model 31051_42779.igs,15HSolidWorks 2016,15HSolidWorks 2016,32,308, G      2
15,308,15,15HWeb Model 31051,1.,2,2HMM,50,0.125,13H170512.094003,       G      3
1E-008,499990.,7Hkwagner,,11,0,13H170512.094003;                        G      4
     314       1       0       0       0                        00000200D      1
     314       0       8       1       0                               0D      2
     128       2       0       0       0                        01010000D      3
     128       0       0       3       0                               0D      4
     126       5       0       0       0                        01010500D      5
     126       0       0       2       0                               0D      6
     110       7       0       0       0                        01010000D      7
     110       0       0       1       0                               0D      8
     126       8       0       0       0                        01010500D      9
     126       0       0       2       0                               0D     10
     110      10       0       0       0                        01010000D     11
     110       0       0       1       0                               0D     12
     126      11       0       0       0                        01010500D     13
     126       0       0       2       0                               0D     14
     110      13       0       0       0                        01010000D     15
     110       0       0       1       0                               0D     16
     126      14       0       0       0                        01010500D     17
     126       0       0       2       0                               0D     18
     110      16       0       0       0                        01010000D     19
     110       0       0       1       0                               0D     20
     102      17       0       0       0                        01010500D     21
     102       0       0       1       0                               0D     22
     102      18       0       0       0                        01010000D     23
     102       0       0       1       0                               0D     24
     142      19       0       0       0                        00010500D     25
     142       0       0       1       0                               0D     26
     144      20       0       0       0                        00000000D     27
     144       0      -1       1       0                               0D     28
     128      21       0       0       0                        01010000D     29
     128       0       0       3       0                               0D     30
     126      24       0       0       0                        01010500D     31
     126       0       0       2       0                               0D     32
     110      26       0       0       0                        01010000D     33
     110       0       0       1       0                               0D     34
     126      27       0       0       0                        01010500D     35
     126       0       0       2       0                               0D     36
     110      29       0       0       0                        01010000D     37
     110       0       0       1       0                               0D     38
     126      30       0       0       0                        01010500D     39
     126       0       0       2       0                               0D     40
     110      32       0       0       0                        01010000D     41
     110       0       0       2       0                               0D     42
     126      34       0       0       0                        01010500D     43
     126       0       0       2       0                               0D     44
     110      36       0       0       0                        01010000D     45
     110       0       0       1       0                               0D     46
     102      37       0       0       0                        01010500D     47
     102       0       0       1       0                               0D     48
     102      38       0       0       0                        01010000D     49
     102       0       0       1       0                               0D     50
     142      39       0       0       0                        00010500D     51
     142       0       0       1       0                               0D     52
     144      40       0       0       0                        00000000D     53
     144       0      -1       1       0                               0D     54
     128      41       0       0       0                        01010000D     55
     128       0       0       4       0                               0D     56
     126      45       0       0       0                        01010500D     57
     126       0       0       2       0                               0D     58
     110      47       0       0       0                        01010000D     59
     110       0       0       2       0                               0D     60
     126      49       0       0       0                        01010500D     61
     126       0       0       2       0                               0D     62
     110      51       0       0       0                        01010000D     63
     110       0       0       2       0                               0D     64
     126      53       0       0       0                        01010500D     65
     126       0       0       2       0                               0D     66
     110      55       0       0       0                        01010000D     67
     110       0       0       2       0                               0D     68
     126      57       0       0       0                        01010500D     69
     126       0       0       2       0                               0D     70
     110      59       0       0       0                        01010000D     71
     110       0       0       2       0                               0D     72
     102      61       0       0       0                        01010500D     73
     102       0       0       1       0                               0D     74
     102      62       0       0       0                        01010000D     75
     102       0       0       1       0                               0D     76
     142      63       0       0       0                        00010500D     77
     142       0       0       1       0                               0D     78
     144      64       0       0       0                        00000000D     79
     144       0      -1       1       0                               0D     80
     128      65       0       0       0                        01010000D     81
     128       0       0       3       0                               0D     82
     126      68       0       0       0                        01010500D     83
     126       0       0       2       0                               0D     84
     110      70       0       0       0                        01010000D     85
     110       0       0       2       0                               0D     86
     126      72       0       0       0                        01010500D     87
     126       0       0       2       0                               0D     88
     110      74       0       0       0                        01010000D     89
     110       0       0       1       0                               0D     90
     126      75       0       0       0                        01010500D     91
     126       0       0       2       0                               0D     92
     110      77       0       0       0                        01010000D     93
     110       0       0       1       0                               0D     94
     126      78       0       0       0                        01010500D     95
     126       0       0       2       0                               0D     96
     110      80       0       0       0                        01010000D     97
     110       0       0       1       0                               0D     98
     102      81       0       0       0                        01010500D     99
     102       0       0       1       0                               0D    100
     102      82       0       0       0                        01010000D    101
     102       0       0       1       0                               0D    102
     142      83       0       0       0                        00010500D    103
     142       0       0       1       0                               0D    104
     144      84       0       0       0                        00000000D    105
     144       0      -1       1       0                               0D    106
     128      85       0       0       0                        01010000D    107
     128       0       0       3       0                               0D    108
     126      88       0       0       0                        01010500D    109
     126       0       0       2       0                               0D    110
     110      90       0       0       0                        01010000D    111
     110       0       0       1       0                               0D    112
     126      91       0       0       0                        01010500D    113
     126       0       0       2       0                               0D    114
     110      93       0       0       0                        01010000D    115
     110       0       0       1       0                               0D    116
     126      94       0       0       0                        01010500D    117
     126       0       0       2       0                               0D    118
     110      96       0       0       0                        01010000D    119
     110       0       0       1       0                               0D    120
     126      97       0       0       0                        01010500D    121
     126       0       0       2       0                               0D    122
     110      99       0       0       0                        01010000D    123
     110       0       0       1       0                               0D    124
     102     100       0       0       0                        01010500D    125
     102       0       0       1       0                               0D    126
     102     101       0       0       0                        01010000D    127
     102       0       0       1       0                               0D    128
     142     102       0       0       0                        00010500D    129
     142       0       0       1       0                               0D    130
     144     103       0       0       0                        00000000D    131
     144       0      -1       1       0                               0D    132
     128     104       0       0       0                        01010000D    133
     128       0       0       3       0                               0D    134
     126     107       0       0       0                        01010500D    135
     126       0       0       2       0                               0D    136
     110     109       0       0       0                        01010000D    137
     110       0       0       1       0                               0D    138
     126     110       0       0       0                        01010500D    139
     126       0       0       2       0                               0D    140
     110     112       0       0       0                        01010000D    141
     110       0       0       1       0                               0D    142
     126     113       0       0       0                        01010500D    143
     126       0       0       2       0                               0D    144
     110     115       0       0       0                        01010000D    145
     110       0       0       2       0                               0D    146
     126     117       0       0       0                        01010500D    147
     126       0       0       2       0                               0D    148
     110     119       0       0       0                        01010000D    149
     110       0       0       1       0                               0D    150
     126     120       0       0       0                        01010500D    151
     126       0       0       2       0                               0D    152
     110     122       0       0       0                        01010000D    153
     110       0       0       1       0                               0D    154
     102     123       0       0       0                        01010500D    155
     102       0       0       1       0                               0D    156
     102     124       0       0       0                        01010000D    157
     102       0       0       1       0                               0D    158
     142     125       0       0       0                        00010500D    159
     142       0       0       1       0                               0D    160
     144     126       0       0       0                        00000000D    161
     144       0      -1       1       0                               0D    162
     128     127       0       0       0                        01010000D    163
     128       0       0       3       0                               0D    164
     126     130       0       0       0                        01010500D    165
     126       0       0       2       0                               0D    166
     110     132       0       0       0                        01010000D    167
     110       0       0       1       0                               0D    168
     126     133       0       0       0                        01010500D    169
     126       0       0       2       0                               0D    170
     110     135       0       0       0                        01010000D    171
     110       0       0       1       0                               0D    172
     126     136       0       0       0                        01010500D    173
     126       0       0       2       0                               0D    174
     110     138       0       0       0                        01010000D    175
     110       0       0       1       0                               0D    176
     126     139       0       0       0                        01010500D    177
     126       0       0       2       0                               0D    178
     110     141       0       0       0                        01010000D    179
     110       0       0       2       0                               0D    180
     126     143       0       0       0                        01010500D    181
     126       0       0       2       0                               0D    182
     110     145       0       0       0                        01010000D    183
     110       0       0       1       0                               0D    184
     102     146       0       0       0                        01010500D    185
     102       0       0       1       0                               0D    186
     102     147       0       0       0                        01010000D    187
     102       0       0       1       0                               0D    188
     142     148       0       0       0                        00010500D    189
     142       0       0       1       0                               0D    190
     144     149       0       0       0                        00000000D    191
     144       0      -1       1       0                               0D    192
314,79.2156862745098,81.9607843137255,93.3333333333333,;               1P      1
128,1,1,1,1,0,0,1,0,0,0.,0.,1.,1.,0.,0.,1.,1.,1.,1.,1.,1.,             3P      2
-12.5,0.,-12.5,12.5,0.,-12.5,-12.5,0.,12.5,12.5,0.,12.5,0.,1.,         3P      3
0.,1.;                                                                 3P      4
126,1,1,1,0,1,0,0.,0.,1.,1.,1.,1.,1.,0.,0.,1.,1.,0.,0.,1.,0.,          5P      5
0.,1.;                                                                 5P      6
110,12.5,0.,-12.5,12.5,0.,12.5;                                        7P      7
126,1,1,1,0,1,0,0.,0.,1.,1.,1.,1.,1.,1.,0.,0.,1.,0.,0.,1.,0.,          9P      8
0.,1.;                                                                 9P      9
110,12.5,0.,12.5,-12.5,0.,12.5;                                       11P     10
126,1,1,1,0,1,0,0.,0.,1.,1.,1.,1.,0.,1.,0.,0.,0.,0.,0.,1.,0.,         13P     11
0.,1.;                                                                13P     12
110,-12.5,0.,12.5,-12.5,0.,-12.5;                                     15P     13
126,1,1,1,0,1,0,0.,0.,1.,1.,1.,1.,0.,0.,0.,1.,0.,0.,0.,1.,0.,         17P     14
0.,1.;                                                                17P     15
110,-12.5,0.,-12.5,12.5,0.,-12.5;                                     19P     16
102,4,5,9,13,17;                                                      21P     17
102,4,7,11,15,19;                                                     23P     18
142,1,3,21,23,1;                                                      25P     19
144,3,1,0,25;                                                         27P     20
128,1,1,1,1,0,0,1,0,0,0.,0.,1.,1.,0.,0.,1.,1.,1.,1.,1.,1.,            29P     21
-23.176867763,-25.776238957,-12.5,-12.5,0.,-12.5,-23.176867763,       29P     22
-25.776238957,12.5,-12.5,0.,12.5,0.,1.,0.,1.;                         29P     23
126,1,1,1,0,1,0,0.,0.,1.,1.,1.,1.,1.,0.,0.,1.,1.,0.,0.,1.,0.,         31P     24
0.,1.;                                                                31P     25
110,-12.5,0.,-12.5,-12.5,0.,12.5;                                     33P     26
126,1,1,1,0,1,0,0.,0.,1.,1.,1.,1.,1.,1.,0.,0.,1.,0.,0.,1.,0.,         35P     27
0.,1.;                                                                35P     28
110,-12.5,0.,12.5,-23.176867763,-25.776238957,12.5;                   37P     29
126,1,1,1,0,1,0,0.,0.,1.,1.,1.,1.,0.,1.,0.,0.,0.,0.,0.,1.,0.,         39P     30
0.,1.;                                                                39P     31
110,-23.176867763,-25.776238957,12.5,-23.176867763,                   41P     32
-25.776238957,-12.5;                                                  41P     33
126,1,1,1,0,1,0,0.,0.,1.,1.,1.,1.,0.,0.,0.,1.,0.,0.,0.,1.,0.,         43P     34
0.,1.;                                                                43P     35
110,-23.176867763,-25.776238957,-12.5,-12.5,0.,-12.5;                 45P     36
102,4,31,35,39,43;                                                    47P     37
102,4,33,37,41,45;                                                    49P     38
142,1,29,47,49,1;                                                     51P     39
144,29,1,0,51;                                                        53P     40
128,1,1,1,1,0,0,1,0,0,0.,0.,1.,1.,0.,0.,1.,1.,1.,1.,1.,1.,            55P     41
-13.276238957,-35.676867763,-12.5,-23.176867763,-25.776238957,        55P     42
-12.5,-13.276238957,-35.676867763,12.5,-23.176867763,                 55P     43
-25.776238957,12.5,0.,1.,0.,1.;                                       55P     44
126,1,1,1,0,1,0,0.,0.,1.,1.,1.,1.,1.,0.,0.,1.,1.,0.,0.,1.,0.,         57P     45
0.,1.;                                                                57P     46
110,-23.176867763,-25.776238957,-12.5,-23.176867763,                  59P     47
-25.776238957,12.5;                                                   59P     48
126,1,1,1,0,1,0,0.,0.,1.,1.,1.,1.,1.,1.,0.,0.,1.,0.,0.,1.,0.,         61P     49
0.,1.;                                                                61P     50
110,-23.176867763,-25.776238957,12.5,-13.276238957,                   63P     51
-35.676867763,12.5;                                                   63P     52
126,1,1,1,0,1,0,0.,0.,1.,1.,1.,1.,0.,1.,0.,0.,0.,0.,0.,1.,0.,         65P     53
0.,1.;                                                                65P     54
110,-13.276238957,-35.676867763,12.5,-13.276238957,                   67P     55
-35.676867763,-12.5;                                                  67P     56
126,1,1,1,0,1,0,0.,0.,1.,1.,1.,1.,0.,0.,0.,1.,0.,0.,0.,1.,0.,         69P     57
0.,1.;                                                                69P     58
110,-13.276238957,-35.676867763,-12.5,-23.176867763,                  71P     59
-25.776238957,-12.5;                                                  71P     60
102,4,57,61,65,69;                                                    73P     61
102,4,59,63,67,71;                                                    75P     62
142,1,55,73,75,1;                                                     77P     63
144,55,1,0,77;                                                        79P     64
128,1,1,1,1,0,0,1,0,0,0.,0.,1.,1.,0.,0.,1.,1.,1.,1.,1.,1.,12.5,       81P     65
-25.,-12.5,-13.276238957,-35.676867763,-12.5,12.5,-25.,12.5,          81P     66
-13.276238957,-35.676867763,12.5,0.,1.,0.,1.;                         81P     67
126,1,1,1,0,1,0,0.,0.,1.,1.,1.,1.,1.,0.,0.,1.,1.,0.,0.,1.,0.,         83P     68
0.,1.;                                                                83P     69
110,-13.276238957,-35.676867763,-12.5,-13.276238957,                  85P     70
-35.676867763,12.5;                                                   85P     71
126,1,1,1,0,1,0,0.,0.,1.,1.,1.,1.,1.,1.,0.,0.,1.,0.,0.,1.,0.,         87P     72
0.,1.;                                                                87P     73
110,-13.276238957,-35.676867763,12.5,12.5,-25.,12.5;                  89P     74
126,1,1,1,0,1,0,0.,0.,1.,1.,1.,1.,0.,1.,0.,0.,0.,0.,0.,1.,0.,         91P     75
0.,1.;                                                                91P     76
110,12.5,-25.,12.5,12.5,-25.,-12.5;                                   93P     77
126,1,1,1,0,1,0,0.,0.,1.,1.,1.,1.,0.,0.,0.,1.,0.,0.,0.,1.,0.,         95P     78
0.,1.;                                                                95P     79
110,12.5,-25.,-12.5,-13.276238957,-35.676867763,-12.5;                97P     80
102,4,83,87,91,95;                                                    99P     81
102,4,85,89,93,97;                                                   101P     82
142,1,81,99,101,1;                                                   103P     83
144,81,1,0,103;                                                      105P     84
128,1,1,1,1,0,0,1,0,0,0.,0.,1.,1.,0.,0.,1.,1.,1.,1.,1.,1.,12.5,      107P     85
0.,-12.5,12.5,-25.,-12.5,12.5,0.,12.5,12.5,-25.,12.5,0.,1.,0.,       107P     86
1.;                                                                  107P     87
126,1,1,1,0,1,0,0.,0.,1.,1.,1.,1.,1.,0.,0.,1.,1.,0.,0.,1.,0.,        109P     88
0.,1.;                                                               109P     89
110,12.5,-25.,-12.5,12.5,-25.,12.5;                                  111P     90
126,1,1,1,0,1,0,0.,0.,1.,1.,1.,1.,1.,1.,0.,0.,1.,0.,0.,1.,0.,        113P     91
0.,1.;                                                               113P     92
110,12.5,-25.,12.5,12.5,0.,12.5;                                     115P     93
126,1,1,1,0,1,0,0.,0.,1.,1.,1.,1.,0.,1.,0.,0.,0.,0.,0.,1.,0.,        117P     94
0.,1.;                                                               117P     95
110,12.5,0.,12.5,12.5,0.,-12.5;                                      119P     96
126,1,1,1,0,1,0,0.,0.,1.,1.,1.,1.,0.,0.,0.,1.,0.,0.,0.,1.,0.,        121P     97
0.,1.;                                                               121P     98
110,12.5,0.,-12.5,12.5,-25.,-12.5;                                   123P     99
102,4,109,113,117,121;                                               125P    100
102,4,111,115,119,123;                                               127P    101
142,1,107,125,127,1;                                                 129P    102
144,107,1,0,129;                                                     131P    103
128,1,1,1,1,0,0,1,0,0,0.,0.,1.,1.,0.,0.,1.,1.,1.,1.,1.,1.,12.5,      133P    104
-35.676867763,12.5,-23.176867763,-35.676867763,12.5,12.5,0.,         133P    105
12.5,-23.176867763,0.,12.5,0.,1.,0.,1.;                              133P    106
126,1,1,1,0,1,0,0.,0.,1.,1.,1.,1.,0.,1.,0.,0.,0.299265839,0.,        135P    107
0.,1.,0.,0.,1.;                                                      135P    108
110,12.5,0.,12.5,12.5,-25.,12.5;                                     137P    109
126,1,1,1,0,1,0,0.,0.,1.,1.,1.,1.,0.,0.299265839,0.,                 139P    110
0.722491647,0.,0.,0.,1.,0.,0.,1.;                                    139P    111
110,12.5,-25.,12.5,-13.276238957,-35.676867763,12.5;                 141P    112
126,1,1,1,0,1,0,0.,0.,1.,1.,1.,1.,0.722491647,0.,0.,1.,              143P    113
0.277508353,0.,0.,1.,0.,0.,1.;                                       143P    114
110,-13.276238957,-35.676867763,12.5,-23.176867763,                  145P    115
-25.776238957,12.5;                                                  145P    116
126,1,1,1,0,1,0,0.,0.,1.,1.,1.,1.,1.,0.277508353,0.,                 147P    117
0.700734161,1.,0.,0.,1.,0.,0.,1.;                                    147P    118
110,-23.176867763,-25.776238957,12.5,-12.5,0.,12.5;                  149P    119
126,1,1,1,0,1,0,0.,0.,1.,1.,1.,1.,0.700734161,1.,0.,0.,1.,0.,        151P    120
0.,1.,0.,0.,1.;                                                      151P    121
110,-12.5,0.,12.5,12.5,0.,12.5;                                      153P    122
102,5,135,139,143,147,151;                                           155P    123
102,5,137,141,145,149,153;                                           157P    124
142,1,133,155,157,1;                                                 159P    125
144,133,1,0,159;                                                     161P    126
128,1,1,1,1,0,0,1,0,0,0.,0.,1.,1.,0.,0.,1.,1.,1.,1.,1.,1.,12.5,      163P    127
-35.676867763,-12.5,-23.176867763,-35.676867763,-12.5,12.5,0.,       163P    128
-12.5,-23.176867763,0.,-12.5,0.,1.,0.,1.;                            163P    129
126,1,1,1,0,1,0,0.,0.,1.,1.,1.,1.,0.700734161,1.,0.,0.,1.,0.,        165P    130
0.,1.,0.,0.,1.;                                                      165P    131
110,-12.5,0.,-12.5,12.5,0.,-12.5;                                    167P    132
126,1,1,1,0,1,0,0.,0.,1.,1.,1.,1.,0.,1.,0.,0.,0.299265839,0.,        169P    133
0.,1.,0.,0.,1.;                                                      169P    134
110,12.5,0.,-12.5,12.5,-25.,-12.5;                                   171P    135
126,1,1,1,0,1,0,0.,0.,1.,1.,1.,1.,0.,0.299265839,0.,                 173P    136
0.722491647,0.,0.,0.,1.,0.,0.,1.;                                    173P    137
110,12.5,-25.,-12.5,-13.276238957,-35.676867763,-12.5;               175P    138
126,1,1,1,0,1,0,0.,0.,1.,1.,1.,1.,0.722491647,0.,0.,1.,              177P    139
0.277508353,0.,0.,1.,0.,0.,1.;                                       177P    140
110,-13.276238957,-35.676867763,-12.5,-23.176867763,                 179P    141
-25.776238957,-12.5;                                                 179P    142
126,1,1,1,0,1,0,0.,0.,1.,1.,1.,1.,1.,0.277508353,0.,                 181P    143
0.700734161,1.,0.,0.,1.,0.,0.,1.;                                    181P    144
110,-23.176867763,-25.776238957,-12.5,-12.5,0.,-12.5;                183P    145
102,5,165,169,173,177,181;                                           185P    146
102,5,167,171,175,179,183;                                           187P    147
142,1,163,185,187,1;                                                 189P    148
144,163,1,0,189;                                                     191P    149
S      1G      4D    192P    149                                        T      1
