ISO-10303-21;
HEADER;
FILE_DESCRIPTION (( 'STEP AP203' ),
    '1' );
FILE_NAME ('Web Model 31051_42779.step',
    '2017-05-12T13:40:03',
    ( '' ),
    ( '' ),
    'SwSTEP 2.0',
    'SolidWorks 2016',
    '' );
FILE_SCHEMA (( 'CONFIG_CONTROL_DESIGN' ));
ENDSEC;

DATA;
#1 = DIRECTION ( 'NONE',  ( 1.000000000000000000, 3.061616997868383100E-016, 0.0000000000000000000 ) ) ;
#2 = ORIENTED_EDGE ( 'NONE', *, *, #238, .T. ) ;
#3 = CARTESIAN_POINT ( 'NONE',  ( 12.49999999999991700, -24.99999999999999300, -12.50000000000000000 ) ) ;
#4 = ORIENTED_EDGE ( 'NONE', *, *, #178, .F. ) ;
#5 = CARTESIAN_POINT ( 'NONE',  ( 12.50000000000000000, 5.510910596163089600E-015, -12.50000000000000000 ) ) ;
#6 = ORIENTED_EDGE ( 'NONE', *, *, #67, .F. ) ;
#7 = VERTEX_POINT ( 'NONE', #264 ) ;
#8 = EDGE_LOOP ( 'NONE', ( #39, #110, #4, #34 ) ) ;
#9 = ORIENTED_EDGE ( 'NONE', *, *, #255, .T. ) ;
#10 = VECTOR ( 'NONE', #101, 999.9999999999998900 ) ;
#11 = ORIENTED_EDGE ( 'NONE', *, *, #160, .T. ) ;
#12 = ORIENTED_EDGE ( 'NONE', *, *, #100, .F. ) ;
#13 = CARTESIAN_POINT ( 'NONE',  ( -13.27623895706489600, -35.67686776298622700, 12.50000000000000000 ) ) ;
#14 = COORDINATED_UNIVERSAL_TIME_OFFSET ( 5, 0, .BEHIND. ) ;
#15 = CC_DESIGN_APPROVAL ( #88, ( #118 ) ) ;
#16 = CARTESIAN_POINT ( 'NONE',  ( -12.50000000000000000, -2.143131898507867900E-015, 12.50000000000000000 ) ) ;
#17 = CC_DESIGN_APPROVAL ( #197, ( #120 ) ) ;
#18 = PERSON_AND_ORGANIZATION ( #98, #253 ) ;
#19 = CARTESIAN_POINT ( 'NONE',  ( -13.27623895706489600, -35.67686776298622700, 12.50000000000000000 ) ) ;
#20 = EDGE_CURVE ( 'NONE', #181, #76, #167, .T. ) ;
#21 = VECTOR ( 'NONE', #153, 999.9999999999998900 ) ;
#22 = DIRECTION ( 'NONE',  ( -0.0000000000000000000, -0.0000000000000000000, -1.000000000000000000 ) ) ;
#23 = VERTEX_POINT ( 'NONE', #245 ) ;
#24 = ORIENTED_EDGE ( 'NONE', *, *, #100, .T. ) ;
#25 = DATE_AND_TIME ( #144, #74 ) ;
#26 = ORIENTED_EDGE ( 'NONE', *, *, #160, .F. ) ;
#27 = EDGE_LOOP ( 'NONE', ( #150, #109, #70, #11 ) ) ;
#28 = CC_DESIGN_PERSON_AND_ORGANIZATION_ASSIGNMENT ( #170, #234, ( #55 ) ) ;
#29 = SECURITY_CLASSIFICATION_LEVEL ( 'unclassified' ) ;
#30 = VERTEX_POINT ( 'NONE', #259 ) ;
#31 = ORIENTED_EDGE ( 'NONE', *, *, #87, .T. ) ;
#32 = ORIENTED_EDGE ( 'NONE', *, *, #147, .T. ) ;
#33 = VERTEX_POINT ( 'NONE', #16 ) ;
#34 = ORIENTED_EDGE ( 'NONE', *, *, #154, .T. ) ;
#35 = CLOSED_SHELL ( 'NONE', ( #185, #159, #92, #237, #135, #240, #208 ) ) ;
#36 = ORIENTED_EDGE ( 'NONE', *, *, #250, .F. ) ;
#37 = PLANE ( 'NONE',  #219 ) ;
#38 = LINE ( 'NONE', #45, #96 ) ;
#39 = ORIENTED_EDGE ( 'NONE', *, *, #113, .T. ) ;
#40 = LINE ( 'NONE', #218, #93 ) ;
#41 = APPLICATION_PROTOCOL_DEFINITION ( 'international standard', 'config_control_design', 1994, #165 ) ;
#42 = LOCAL_TIME ( 9, 40, 3.000000000000000000, #203 ) ;
#43 = APPLICATION_PROTOCOL_DEFINITION ( 'international standard', 'config_control_design', 1994, #138 ) ;
#44 = EDGE_LOOP ( 'NONE', ( #210, #49, #12, #89 ) ) ;
#45 = CARTESIAN_POINT ( 'NONE',  ( -23.17686776298592100, -25.77623895706493700, 12.50000000000000000 ) ) ;
#46 = FACE_OUTER_BOUND ( 'NONE', #82, .T. ) ;
#47 = CALENDAR_DATE ( 2017, 12, 5 ) ;
#48 = CARTESIAN_POINT ( 'NONE',  ( -12.50000000000000000, -2.143131898507867900E-015, 12.50000000000000000 ) ) ;
#49 = ORIENTED_EDGE ( 'NONE', *, *, #20, .F. ) ;
#50 = EDGE_CURVE ( 'NONE', #30, #33, #40, .T. ) ;
#51 = DIRECTION ( 'NONE',  ( -0.0000000000000000000, -0.0000000000000000000, -1.000000000000000000 ) ) ;
#52 = ORIENTED_EDGE ( 'NONE', *, *, #178, .T. ) ;
#53 = PERSON_AND_ORGANIZATION_ROLE ( 'creator' ) ;
#54 = CALENDAR_DATE ( 2017, 12, 5 ) ;
#55 = PRODUCT ( 'Web Model 31051_42779', 'Web Model 31051_42779', '', ( #180 ) ) ;
#56 = APPROVAL_ROLE ( '' ) ;
#57 = CC_DESIGN_DATE_AND_TIME_ASSIGNMENT ( #207, #175, ( #118 ) ) ;
#58 = CARTESIAN_POINT ( 'NONE',  ( -23.17686776298592100, -25.77623895706493700, -12.50000000000000000 ) ) ;
#59 = PLANE ( 'NONE',  #173 ) ;
#60 = VECTOR ( 'NONE', #228, 1000.000000000000000 ) ;
#61 = AXIS2_PLACEMENT_3D ( 'NONE', #155, #148, #75 ) ;
#62 = EDGE_LOOP ( 'NONE', ( #31, #26, #6, #134 ) ) ;
#63 = CC_DESIGN_PERSON_AND_ORGANIZATION_ASSIGNMENT ( #139, #53, ( #108 ) ) ;
#64 = EDGE_LOOP ( 'NONE', ( #2, #36, #200, #32 ) ) ;
#65 = SHAPE_DEFINITION_REPRESENTATION ( #252, #183 ) ;
#66 = ORIENTED_EDGE ( 'NONE', *, *, #50, .T. ) ;
#67 = EDGE_CURVE ( 'NONE', #181, #30, #182, .T. ) ;
#68 = DIRECTION ( 'NONE',  ( 3.400058012914541900E-015, 1.000000000000000000, 0.0000000000000000000 ) ) ;
#69 = DATE_AND_TIME ( #220, #136 ) ;
#70 = ORIENTED_EDGE ( 'NONE', *, *, #50, .F. ) ;
#71 = CARTESIAN_POINT ( 'NONE',  ( -13.27623895706489600, -35.67686776298622700, 12.50000000000000000 ) ) ;
#72 = CC_DESIGN_PERSON_AND_ORGANIZATION_ASSIGNMENT ( #188, #270, ( #120 ) ) ;
#73 =( LENGTH_UNIT ( ) NAMED_UNIT ( * ) SI_UNIT ( .MILLI., .METRE. ) );
#74 = LOCAL_TIME ( 9, 40, 3.000000000000000000, #179 ) ;
#75 = DIRECTION ( 'NONE',  ( -3.400058012914541900E-015, -1.000000000000000000, 0.0000000000000000000 ) ) ;
#76 = VERTEX_POINT ( 'NONE', #3 ) ;
#77 = CARTESIAN_POINT ( 'NONE',  ( 0.0000000000000000000, 0.0000000000000000000, 0.0000000000000000000 ) ) ;
#78 = DESIGN_CONTEXT ( 'detailed design', #165, 'design' ) ;
#79 = FACE_OUTER_BOUND ( 'NONE', #64, .T. ) ;
#80 = DATE_TIME_ROLE ( 'creation_date' ) ;
#81 = CARTESIAN_POINT ( 'NONE',  ( -23.17686776298592100, -25.77623895706493700, 12.50000000000000000 ) ) ;
#82 = EDGE_LOOP ( 'NONE', ( #83, #103, #192, #232, #161 ) ) ;
#83 = ORIENTED_EDGE ( 'NONE', *, *, #104, .F. ) ;
#84 = VECTOR ( 'NONE', #132, 999.9999999999998900 ) ;
#85 = LINE ( 'NONE', #142, #84 ) ;
#86 = DIRECTION ( 'NONE',  ( -0.0000000000000000000, -0.0000000000000000000, -1.000000000000000000 ) ) ;
#87 = EDGE_CURVE ( 'NONE', #76, #251, #126, .T. ) ;
#88 = APPROVAL ( #141, 'UNSPECIFIED' ) ;
#89 = ORIENTED_EDGE ( 'NONE', *, *, #250, .T. ) ;
#90 = DIRECTION ( 'NONE',  ( 0.0000000000000000000, 0.0000000000000000000, -1.000000000000000000 ) ) ;
#91 = APPROVAL_DATE_TIME ( #239, #197 ) ;
#92 = ADVANCED_FACE ( 'NONE', ( #79 ), #187, .F. ) ;
#93 = VECTOR ( 'NONE', #176, 1000.000000000000000 ) ;
#94 = COORDINATED_UNIVERSAL_TIME_OFFSET ( 5, 0, .BEHIND. ) ;
#95 = DIRECTION ( 'NONE',  ( 0.0000000000000000000, 0.0000000000000000000, 1.000000000000000000 ) ) ;
#96 = VECTOR ( 'NONE', #230, 999.9999999999998900 ) ;
#97 = CARTESIAN_POINT ( 'NONE',  ( 12.49999999999991700, -24.99999999999999300, 12.50000000000000000 ) ) ;
#98 = PERSON ( 'UNSPECIFIED', 'UNSPECIFIED', 'UNSPECIFIED', ('UNSPECIFIED'), ('UNSPECIFIED'), ('UNSPECIFIED') ) ;
#99 = DIRECTION ( 'NONE',  ( 1.000000000000000000, 0.0000000000000000000, 0.0000000000000000000 ) ) ;
#100 = EDGE_CURVE ( 'NONE', #213, #181, #249, .T. ) ;
#101 = DIRECTION ( 'NONE',  ( 0.7071067811865383600, -0.7071067811865567900, 0.0000000000000000000 ) ) ;
#102 = DIRECTION ( 'NONE',  ( -1.000000000000000000, 0.0000000000000000000, 0.0000000000000000000 ) ) ;
#103 = ORIENTED_EDGE ( 'NONE', *, *, #87, .F. ) ;
#104 = EDGE_CURVE ( 'NONE', #251, #258, #256, .T. ) ;
#105 = LINE ( 'NONE', #246, #169 ) ;
#106 = APPROVAL_ROLE ( '' ) ;
#107 =( NAMED_UNIT ( * ) PLANE_ANGLE_UNIT ( ) SI_UNIT ( $, .RADIAN. ) );
#108 = PRODUCT_DEFINITION_FORMATION_WITH_SPECIFIED_SOURCE ( 'ANY', '', #55, .NOT_KNOWN. ) ;
#109 = ORIENTED_EDGE ( 'NONE', *, *, #154, .F. ) ;
#110 = ORIENTED_EDGE ( 'NONE', *, *, #147, .F. ) ;
#111 = CARTESIAN_POINT ( 'NONE',  ( -12.50000000000000000, -2.143131898507867900E-015, -12.50000000000000000 ) ) ;
#112 = APPROVAL_PERSON_ORGANIZATION ( #261, #197, #106 ) ;
#113 = EDGE_CURVE ( 'NONE', #258, #7, #157, .T. ) ;
#114 = FACE_OUTER_BOUND ( 'NONE', #27, .T. ) ;
#115 = PERSON_AND_ORGANIZATION_ROLE ( 'classification_officer' ) ;
#116 = COORDINATED_UNIVERSAL_TIME_OFFSET ( 5, 0, .BEHIND. ) ;
#117 = AXIS2_PLACEMENT_3D ( 'NONE', #81, #163, #145 ) ;
#118 = SECURITY_CLASSIFICATION ( '', '', #29 ) ;
#119 = AXIS2_PLACEMENT_3D ( 'NONE', #48, #260, #209 ) ;
#120 = PRODUCT_DEFINITION ( 'UNKNOWN', '', #108, #78 ) ;
#121 = PERSON_AND_ORGANIZATION ( #98, #253 ) ;
#122 = DIRECTION ( 'NONE',  ( -0.3826834323650867800, -0.9238795325112879600, 0.0000000000000000000 ) ) ;
#123 = ORIENTED_EDGE ( 'NONE', *, *, #67, .T. ) ;
#124 = CARTESIAN_POINT ( 'NONE',  ( 0.0000000000000000000, 0.0000000000000000000, 12.50000000000000000 ) ) ;
#125 = DIRECTION ( 'NONE',  ( -0.0000000000000000000, -0.0000000000000000000, -1.000000000000000000 ) ) ;
#126 = LINE ( 'NONE', #199, #184 ) ;
#127 = FACE_OUTER_BOUND ( 'NONE', #44, .T. ) ;
#128 = CARTESIAN_POINT ( 'NONE',  ( -12.50000000000000000, -2.143131898507867900E-015, -12.50000000000000000 ) ) ;
#129 = CARTESIAN_POINT ( 'NONE',  ( -23.17686776298592100, -25.77623895706493700, 12.50000000000000000 ) ) ;
#130 = VECTOR ( 'NONE', #122, 1000.000000000000200 ) ;
#131 = FACE_OUTER_BOUND ( 'NONE', #62, .T. ) ;
#132 = DIRECTION ( 'NONE',  ( 0.9238795325112835200, 0.3826834323650978300, 0.0000000000000000000 ) ) ;
#133 = CARTESIAN_POINT ( 'NONE',  ( 12.50000000000000000, 5.510910596163089600E-015, -12.50000000000000000 ) ) ;
#134 = ORIENTED_EDGE ( 'NONE', *, *, #20, .T. ) ;
#135 = ADVANCED_FACE ( 'NONE', ( #131 ), #186, .F. ) ;
#136 = LOCAL_TIME ( 9, 40, 3.000000000000000000, #14 ) ;
#137 = AXIS2_PLACEMENT_3D ( 'NONE', #221, #217, #1 ) ;
#138 = APPLICATION_CONTEXT ( 'configuration controlled 3d designs of mechanical parts and assemblies' ) ;
#139 = PERSON_AND_ORGANIZATION ( #98, #253 ) ;
#140 = EDGE_LOOP ( 'NONE', ( #66, #52, #9, #24, #123 ) ) ;
#141 = APPROVAL_STATUS ( 'not_yet_approved' ) ;
#142 = CARTESIAN_POINT ( 'NONE',  ( -13.27623895706489600, -35.67686776298622700, -12.50000000000000000 ) ) ;
#143 = CARTESIAN_POINT ( 'NONE',  ( 12.49999999999991700, -24.99999999999999300, 12.50000000000000000 ) ) ;
#144 = CALENDAR_DATE ( 2017, 12, 5 ) ;
#145 = DIRECTION ( 'NONE',  ( -0.7071067811865383600, 0.7071067811865567900, 0.0000000000000000000 ) ) ;
#146 = CARTESIAN_POINT ( 'NONE',  ( 12.49999999999991700, -24.99999999999999300, 12.50000000000000000 ) ) ;
#147 = EDGE_CURVE ( 'NONE', #198, #7, #212, .T. ) ;
#148 = DIRECTION ( 'NONE',  ( -1.000000000000000000, 3.400058012914541900E-015, 0.0000000000000000000 ) ) ;
#149 = UNCERTAINTY_MEASURE_WITH_UNIT (LENGTH_MEASURE( 1.000000000000000100E-005 ), #73, 'distance_accuracy_value', 'NONE');
#150 = ORIENTED_EDGE ( 'NONE', *, *, #104, .T. ) ;
#151 = LINE ( 'NONE', #13, #216 ) ;
#152 = CALENDAR_DATE ( 2017, 12, 5 ) ;
#153 = DIRECTION ( 'NONE',  ( 0.9238795325112835200, 0.3826834323650978300, 0.0000000000000000000 ) ) ;
#154 = EDGE_CURVE ( 'NONE', #33, #258, #244, .T. ) ;
#155 = CARTESIAN_POINT ( 'NONE',  ( 12.49999999999991700, -24.99999999999999300, 12.50000000000000000 ) ) ;
#156 = DATE_AND_TIME ( #47, #205 ) ;
#157 = LINE ( 'NONE', #111, #130 ) ;
#158 = VECTOR ( 'NONE', #86, 1000.000000000000000 ) ;
#159 = ADVANCED_FACE ( 'NONE', ( #168 ), #177, .F. ) ;
#160 = EDGE_CURVE ( 'NONE', #30, #251, #189, .T. ) ;
#161 = ORIENTED_EDGE ( 'NONE', *, *, #113, .F. ) ;
#162 = CARTESIAN_POINT ( 'NONE',  ( 0.0000000000000000000, 0.0000000000000000000, -12.50000000000000000 ) ) ;
#163 = DIRECTION ( 'NONE',  ( 0.7071067811865567900, 0.7071067811865383600, -0.0000000000000000000 ) ) ;
#164 = CARTESIAN_POINT ( 'NONE',  ( -13.27623895706489600, -35.67686776298622700, 12.50000000000000000 ) ) ;
#165 = APPLICATION_CONTEXT ( 'configuration controlled 3d designs of mechanical parts and assemblies' ) ;
#166 = CC_DESIGN_PERSON_AND_ORGANIZATION_ASSIGNMENT ( #191, #115, ( #118 ) ) ;
#167 = LINE ( 'NONE', #97, #158 ) ;
#168 = FACE_OUTER_BOUND ( 'NONE', #8, .T. ) ;
#169 = VECTOR ( 'NONE', #211, 1000.000000000000200 ) ;
#170 = PERSON_AND_ORGANIZATION ( #98, #253 ) ;
#171 = VECTOR ( 'NONE', #236, 1000.000000000000000 ) ;
#172 = DIRECTION ( 'NONE',  ( 0.0000000000000000000, 0.0000000000000000000, -1.000000000000000000 ) ) ;
#173 = AXIS2_PLACEMENT_3D ( 'NONE', #71, #214, #265 ) ;
#174 = PERSON_AND_ORGANIZATION ( #98, #253 ) ;
#175 = DATE_TIME_ROLE ( 'classification_date' ) ;
#176 = DIRECTION ( 'NONE',  ( -1.000000000000000000, -3.061616997868383100E-016, 0.0000000000000000000 ) ) ;
#177 = PLANE ( 'NONE',  #119 ) ;
#178 = EDGE_CURVE ( 'NONE', #33, #198, #105, .T. ) ;
#179 = COORDINATED_UNIVERSAL_TIME_OFFSET ( 5, 0, .BEHIND. ) ;
#180 = MECHANICAL_CONTEXT ( 'NONE', #138, 'mechanical' ) ;
#181 = VERTEX_POINT ( 'NONE', #146 ) ;
#182 = LINE ( 'NONE', #143, #171 ) ;
#183 = ADVANCED_BREP_SHAPE_REPRESENTATION ( 'Web Model 31051_42779', ( #201, #243 ), #196 ) ;
#184 = VECTOR ( 'NONE', #68, 1000.000000000000000 ) ;
#185 = ADVANCED_FACE ( 'NONE', ( #114 ), #224, .F. ) ;
#186 = PLANE ( 'NONE',  #61 ) ;
#187 = PLANE ( 'NONE',  #117 ) ;
#188 = PERSON_AND_ORGANIZATION ( #98, #253 ) ;
#189 = LINE ( 'NONE', #229, #60 ) ;
#190 = CC_DESIGN_SECURITY_CLASSIFICATION ( #118, ( #108 ) ) ;
#191 = PERSON_AND_ORGANIZATION ( #98, #253 ) ;
#192 = ORIENTED_EDGE ( 'NONE', *, *, #267, .F. ) ;
#193 = VECTOR ( 'NONE', #51, 1000.000000000000000 ) ;
#194 = CC_DESIGN_DATE_AND_TIME_ASSIGNMENT ( #69, #80, ( #120 ) ) ;
#195 = APPROVAL_DATE_TIME ( #25, #88 ) ;
#196 =( GEOMETRIC_REPRESENTATION_CONTEXT ( 3 ) GLOBAL_UNCERTAINTY_ASSIGNED_CONTEXT ( ( #149 ) ) GLOBAL_UNIT_ASSIGNED_CONTEXT ( ( #73, #107, #247 ) ) REPRESENTATION_CONTEXT ( 'NONE', 'WORKASPACE' ) );
#197 = APPROVAL ( #268, 'UNSPECIFIED' ) ;
#198 = VERTEX_POINT ( 'NONE', #248 ) ;
#199 = CARTESIAN_POINT ( 'NONE',  ( 12.49999999999991700, -24.99999999999999300, -12.50000000000000000 ) ) ;
#200 = ORIENTED_EDGE ( 'NONE', *, *, #255, .F. ) ;
#201 = MANIFOLD_SOLID_BREP ( 'Boss-Extrude1', #35 ) ;
#202 = CARTESIAN_POINT ( 'NONE',  ( -12.50000000000000000, -2.143131898507867900E-015, 12.50000000000000000 ) ) ;
#203 = COORDINATED_UNIVERSAL_TIME_OFFSET ( 5, 0, .BEHIND. ) ;
#204 = LINE ( 'NONE', #58, #10 ) ;
#205 = LOCAL_TIME ( 9, 40, 3.000000000000000000, #116 ) ;
#206 = PLANE ( 'NONE',  #223 ) ;
#207 = DATE_AND_TIME ( #54, #242 ) ;
#208 = ADVANCED_FACE ( 'NONE', ( #46 ), #206, .T. ) ;
#209 = DIRECTION ( 'NONE',  ( 0.3826834323650867300, 0.9238795325112879600, 0.0000000000000000000 ) ) ;
#210 = ORIENTED_EDGE ( 'NONE', *, *, #267, .T. ) ;
#211 = DIRECTION ( 'NONE',  ( -0.3826834323650867800, -0.9238795325112879600, 0.0000000000000000000 ) ) ;
#212 = LINE ( 'NONE', #129, #193 ) ;
#213 = VERTEX_POINT ( 'NONE', #164 ) ;
#214 = DIRECTION ( 'NONE',  ( -0.3826834323650978300, 0.9238795325112834100, 0.0000000000000000000 ) ) ;
#215 = VECTOR ( 'NONE', #125, 1000.000000000000000 ) ;
#216 = VECTOR ( 'NONE', #22, 1000.000000000000000 ) ;
#217 = DIRECTION ( 'NONE',  ( 3.061616997868383100E-016, -1.000000000000000000, 0.0000000000000000000 ) ) ;
#218 = CARTESIAN_POINT ( 'NONE',  ( 12.50000000000000000, 5.510910596163089600E-015, 12.50000000000000000 ) ) ;
#219 = AXIS2_PLACEMENT_3D ( 'NONE', #124, #90, #262 ) ;
#220 = CALENDAR_DATE ( 2017, 12, 5 ) ;
#221 = CARTESIAN_POINT ( 'NONE',  ( 12.50000000000000000, 5.510910596163089600E-015, 12.50000000000000000 ) ) ;
#222 = APPROVAL_DATE_TIME ( #156, #254 ) ;
#223 = AXIS2_PLACEMENT_3D ( 'NONE', #162, #172, #102 ) ;
#224 = PLANE ( 'NONE',  #137 ) ;
#225 = VECTOR ( 'NONE', #226, 1000.000000000000000 ) ;
#226 = DIRECTION ( 'NONE',  ( -1.000000000000000000, -3.061616997868383100E-016, 0.0000000000000000000 ) ) ;
#227 = APPROVAL_STATUS ( 'not_yet_approved' ) ;
#228 = DIRECTION ( 'NONE',  ( -0.0000000000000000000, -0.0000000000000000000, -1.000000000000000000 ) ) ;
#229 = CARTESIAN_POINT ( 'NONE',  ( 12.50000000000000000, 5.510910596163089600E-015, 12.50000000000000000 ) ) ;
#230 = DIRECTION ( 'NONE',  ( 0.7071067811865383600, -0.7071067811865567900, 0.0000000000000000000 ) ) ;
#231 = PERSON_AND_ORGANIZATION_ROLE ( 'design_supplier' ) ;
#232 = ORIENTED_EDGE ( 'NONE', *, *, #238, .F. ) ;
#233 = APPROVAL_ROLE ( '' ) ;
#234 = PERSON_AND_ORGANIZATION_ROLE ( 'design_owner' ) ;
#235 = FACE_OUTER_BOUND ( 'NONE', #140, .T. ) ;
#236 = DIRECTION ( 'NONE',  ( 3.400058012914541900E-015, 1.000000000000000000, 0.0000000000000000000 ) ) ;
#237 = ADVANCED_FACE ( 'NONE', ( #127 ), #59, .F. ) ;
#238 = EDGE_CURVE ( 'NONE', #7, #23, #204, .T. ) ;
#239 = DATE_AND_TIME ( #152, #42 ) ;
#240 = ADVANCED_FACE ( 'NONE', ( #235 ), #37, .F. ) ;
#241 = CC_DESIGN_PERSON_AND_ORGANIZATION_ASSIGNMENT ( #18, #231, ( #108 ) ) ;
#242 = LOCAL_TIME ( 9, 40, 3.000000000000000000, #94 ) ;
#243 = AXIS2_PLACEMENT_3D ( 'NONE', #77, #95, #99 ) ;
#244 = LINE ( 'NONE', #202, #215 ) ;
#245 = CARTESIAN_POINT ( 'NONE',  ( -13.27623895706489600, -35.67686776298622700, -12.50000000000000000 ) ) ;
#246 = CARTESIAN_POINT ( 'NONE',  ( -12.50000000000000000, -2.143131898507867900E-015, 12.50000000000000000 ) ) ;
#247 =( NAMED_UNIT ( * ) SI_UNIT ( $, .STERADIAN. ) SOLID_ANGLE_UNIT ( ) );
#248 = CARTESIAN_POINT ( 'NONE',  ( -23.17686776298592100, -25.77623895706493700, 12.50000000000000000 ) ) ;
#249 = LINE ( 'NONE', #19, #21 ) ;
#250 = EDGE_CURVE ( 'NONE', #213, #23, #151, .T. ) ;
#251 = VERTEX_POINT ( 'NONE', #5 ) ;
#252 = PRODUCT_DEFINITION_SHAPE ( 'NONE', 'NONE',  #120 ) ;
#253 = ORGANIZATION ( 'UNSPECIFIED', 'UNSPECIFIED', '' ) ;
#254 = APPROVAL ( #227, 'UNSPECIFIED' ) ;
#255 = EDGE_CURVE ( 'NONE', #198, #213, #38, .T. ) ;
#256 = LINE ( 'NONE', #133, #225 ) ;
#257 = PRODUCT_RELATED_PRODUCT_CATEGORY ( 'detail', '', ( #55 ) ) ;
#258 = VERTEX_POINT ( 'NONE', #128 ) ;
#259 = CARTESIAN_POINT ( 'NONE',  ( 12.50000000000000000, 5.510910596163089600E-015, 12.50000000000000000 ) ) ;
#260 = DIRECTION ( 'NONE',  ( 0.9238795325112880700, -0.3826834323650867800, 0.0000000000000000000 ) ) ;
#261 = PERSON_AND_ORGANIZATION ( #98, #253 ) ;
#262 = DIRECTION ( 'NONE',  ( -1.000000000000000000, 0.0000000000000000000, 0.0000000000000000000 ) ) ;
#263 = APPROVAL_PERSON_ORGANIZATION ( #174, #254, #233 ) ;
#264 = CARTESIAN_POINT ( 'NONE',  ( -23.17686776298592100, -25.77623895706493700, -12.50000000000000000 ) ) ;
#265 = DIRECTION ( 'NONE',  ( -0.9238795325112834100, -0.3826834323650978300, 0.0000000000000000000 ) ) ;
#266 = APPROVAL_PERSON_ORGANIZATION ( #121, #88, #56 ) ;
#267 = EDGE_CURVE ( 'NONE', #23, #76, #85, .T. ) ;
#268 = APPROVAL_STATUS ( 'not_yet_approved' ) ;
#269 = CC_DESIGN_APPROVAL ( #254, ( #108 ) ) ;
#270 = PERSON_AND_ORGANIZATION_ROLE ( 'creator' ) ;
ENDSEC;
END-ISO-10303-21;
