<?xml version="1.0" encoding="UTF-8"?>
<svg xmlns="http://www.w3.org/2000/svg" viewBox="0 0 360 280" font-family="Arial, Helvetica, sans-serif">
  <defs>
    <style>
      .ttl   { fill:#111827; font-size:14px; font-weight:700; }
      .sub   { fill:#374151; font-size:10.5px; }
      .axis  { stroke:#9ca3af; stroke-width:1; }
      .grid  { stroke:#cbd5e1; stroke-width:0.8; stroke-dasharray:2,2; }
      .pt    { fill:#b91c1c; stroke:none; }
      .pup   { fill:#eff6ff; stroke:#1e3a8a; stroke-width:1.4; }
      .lblx  { fill:#374151; font-size:10px; }
      .nm    { stroke:#1e3a8a; stroke-width:1.8; fill:none; }
      .nm2   { stroke:#15803d; stroke-width:1.8; fill:none; }
      .nm3   { stroke:#b45309; stroke-width:1.8; fill:none; }
      .arr   { stroke:#374151; stroke-width:1; fill:none; }
    </style>
    <marker id="arr" viewBox="0 0 10 10" refX="9" refY="5" markerWidth="6" markerHeight="6" orient="auto">
      <path d="M0,0 L10,5 L0,10 Z" fill="#374151"/>
    </marker>
  </defs>
  <text x="180" y="20" text-anchor="middle" class="ttl">Wavefront Error Map</text>
  <text x="180" y="36" text-anchor="middle" class="sub">W(u,v) on the exit pupil</text>
  <rect x="80.0" y="131.2" width="7.9" height="7.9" fill="#c8796b"/>
  <rect x="80.0" y="139.2" width="7.9" height="7.9" fill="#c97e70"/>
  <rect x="80.0" y="147.1" width="7.9" height="7.9" fill="#ca8073"/>
  <rect x="80.0" y="155.0" width="7.9" height="7.9" fill="#ca8073"/>
  <rect x="80.0" y="162.9" width="7.9" height="7.9" fill="#c97e70"/>
  <rect x="80.0" y="170.8" width="7.9" height="7.9" fill="#c8796b"/>
  <rect x="87.9" y="107.5" width="7.9" height="7.9" fill="#cd877a"/>
  <rect x="87.9" y="115.4" width="7.9" height="7.9" fill="#d19286"/>
  <rect x="87.9" y="123.3" width="7.9" height="7.9" fill="#d59b91"/>
  <rect x="87.9" y="131.2" width="7.9" height="7.9" fill="#d8a299"/>
  <rect x="87.9" y="139.2" width="7.9" height="7.9" fill="#daa79e"/>
  <rect x="87.9" y="147.1" width="7.9" height="7.9" fill="#daaaa1"/>
  <rect x="87.9" y="155.0" width="7.9" height="7.9" fill="#daaaa1"/>
  <rect x="87.9" y="162.9" width="7.9" height="7.9" fill="#daa79e"/>
  <rect x="87.9" y="170.8" width="7.9" height="7.9" fill="#d8a299"/>
  <rect x="87.9" y="178.8" width="7.9" height="7.9" fill="#d59b91"/>
  <rect x="87.9" y="186.7" width="7.9" height="7.9" fill="#d19286"/>
  <rect x="87.9" y="194.6" width="7.9" height="7.9" fill="#cd877a"/>
  <rect x="95.8" y="99.6" width="7.9" height="7.9" fill="#d69d93"/>
  <rect x="95.8" y="107.5" width="7.9" height="7.9" fill="#dbaaa1"/>
  <rect x="95.8" y="115.4" width="7.9" height="7.9" fill="#dfb5ae"/>
  <rect x="95.8" y="123.3" width="7.9" height="7.9" fill="#e3bfb8"/>
  <rect x="95.8" y="131.2" width="7.9" height="7.9" fill="#e5c6c0"/>
  <rect x="95.8" y="139.2" width="7.9" height="7.9" fill="#e7cbc5"/>
  <rect x="95.8" y="147.1" width="7.9" height="7.9" fill="#e8cdc8"/>
  <rect x="95.8" y="155.0" width="7.9" height="7.9" fill="#e8cdc8"/>
  <rect x="95.8" y="162.9" width="7.9" height="7.9" fill="#e7cbc5"/>
  <rect x="95.8" y="170.8" width="7.9" height="7.9" fill="#e5c6c0"/>
  <rect x="95.8" y="178.8" width="7.9" height="7.9" fill="#e3bfb8"/>
  <rect x="95.8" y="186.7" width="7.9" height="7.9" fill="#dfb5ae"/>
  <rect x="95.8" y="194.6" width="7.9" height="7.9" fill="#dbaaa1"/>
  <rect x="95.8" y="202.5" width="7.9" height="7.9" fill="#d69d93"/>
  <rect x="103.8" y="91.7" width="7.9" height="7.9" fill="#dcaea5"/>
  <rect x="103.8" y="99.6" width="7.9" height="7.9" fill="#e1bbb5"/>
  <rect x="103.8" y="107.5" width="7.9" height="7.9" fill="#e6c8c3"/>
  <rect x="103.8" y="115.4" width="7.9" height="7.9" fill="#ebd3cf"/>
  <rect x="103.8" y="123.3" width="7.9" height="7.9" fill="#eeddd9"/>
  <rect x="103.8" y="131.2" width="7.9" height="7.9" fill="#f1e4e1"/>
  <rect x="103.8" y="139.2" width="7.9" height="7.9" fill="#f3e9e7"/>
  <rect x="103.8" y="147.1" width="7.9" height="7.9" fill="#f4ebea"/>
  <rect x="103.8" y="155.0" width="7.9" height="7.9" fill="#f4ebea"/>
  <rect x="103.8" y="162.9" width="7.9" height="7.9" fill="#f3e9e7"/>
  <rect x="103.8" y="170.8" width="7.9" height="7.9" fill="#f1e4e1"/>
  <rect x="103.8" y="178.8" width="7.9" height="7.9" fill="#eeddd9"/>
  <rect x="103.8" y="186.7" width="7.9" height="7.9" fill="#ebd3cf"/>
  <rect x="103.8" y="194.6" width="7.9" height="7.9" fill="#e6c8c3"/>
  <rect x="103.8" y="202.5" width="7.9" height="7.9" fill="#e1bbb5"/>
  <rect x="103.8" y="210.4" width="7.9" height="7.9" fill="#dcaea5"/>
  <rect x="111.7" y="83.8" width="7.9" height="7.9" fill="#e0b8b1"/>
  <rect x="111.7" y="91.7" width="7.9" height="7.9" fill="#e6c7c1"/>
  <rect x="111.7" y="99.6" width="7.9" height="7.9" fill="#ebd5d1"/>
  <rect x="111.7" y="107.5" width="7.9" height="7.9" fill="#f0e2df"/>
  <rect x="111.7" y="115.4" width="7.9" height="7.9" fill="#f5edeb"/>
  <rect x="111.7" y="123.3" width="7.9" height="7.9" fill="#f8f6f6"/>
  <rect x="111.7" y="131.2" width="7.9" height="7.9" fill="#f5f6f7"/>
  <rect x="111.7" y="139.2" width="7.9" height="7.9" fill="#eff0f4"/>
  <rect x="111.7" y="147.1" width="7.9" height="7.9" fill="#eceef3"/>
  <rect x="111.7" y="155.0" width="7.9" height="7.9" fill="#eceef3"/>
  <rect x="111.7" y="162.9" width="7.9" height="7.9" fill="#eff0f4"/>
  <rect x="111.7" y="170.8" width="7.9" height="7.9" fill="#f5f6f7"/>
  <rect x="111.7" y="178.8" width="7.9" height="7.9" fill="#f8f6f6"/>
  <rect x="111.7" y="186.7" width="7.9" height="7.9" fill="#f5edeb"/>
  <rect x="111.7" y="194.6" width="7.9" height="7.9" fill="#f0e2df"/>
  <rect x="111.7" y="202.5" width="7.9" height="7.9" fill="#ebd5d1"/>
  <rect x="111.7" y="210.4" width="7.9" height="7.9" fill="#e6c7c1"/>
  <rect x="111.7" y="218.3" width="7.9" height="7.9" fill="#e0b8b1"/>
  <rect x="119.6" y="75.8" width="7.9" height="7.9" fill="#e3beb8"/>
  <rect x="119.6" y="83.8" width="7.9" height="7.9" fill="#e8cdc8"/>
  <rect x="119.6" y="91.7" width="7.9" height="7.9" fill="#eedcd9"/>
  <rect x="119.6" y="99.6" width="7.9" height="7.9" fill="#f3eae8"/>
  <rect x="119.6" y="107.5" width="7.9" height="7.9" fill="#f8f7f6"/>
  <rect x="119.6" y="115.4" width="7.9" height="7.9" fill="#eff1f4"/>
  <rect x="119.6" y="123.3" width="7.9" height="7.9" fill="#e4e7ef"/>
  <rect x="119.6" y="131.2" width="7.9" height="7.9" fill="#dbdfea"/>
  <rect x="119.6" y="139.2" width="7.9" height="7.9" fill="#d5dae7"/>
  <rect x="119.6" y="147.1" width="7.9" height="7.9" fill="#d2d7e6"/>
  <rect x="119.6" y="155.0" width="7.9" height="7.9" fill="#d2d7e6"/>
  <rect x="119.6" y="162.9" width="7.9" height="7.9" fill="#d5dae7"/>
  <rect x="119.6" y="170.8" width="7.9" height="7.9" fill="#dbdfea"/>
  <rect x="119.6" y="178.8" width="7.9" height="7.9" fill="#e4e7ef"/>
  <rect x="119.6" y="186.7" width="7.9" height="7.9" fill="#eff1f4"/>
  <rect x="119.6" y="194.6" width="7.9" height="7.9" fill="#f8f7f6"/>
  <rect x="119.6" y="202.5" width="7.9" height="7.9" fill="#f3eae8"/>
  <rect x="119.6" y="210.4" width="7.9" height="7.9" fill="#eedcd9"/>
  <rect x="119.6" y="218.3" width="7.9" height="7.9" fill="#e8cdc8"/>
  <rect x="119.6" y="226.2" width="7.9" height="7.9" fill="#e3beb8"/>
  <rect x="127.5" y="67.9" width="7.9" height="7.9" fill="#e4c1bb"/>
  <rect x="127.5" y="75.8" width="7.9" height="7.9" fill="#e9d0cb"/>
  <rect x="127.5" y="83.8" width="7.9" height="7.9" fill="#efdfdc"/>
  <rect x="127.5" y="91.7" width="7.9" height="7.9" fill="#f5edec"/>
  <rect x="127.5" y="99.6" width="7.9" height="7.9" fill="#f7f8f8"/>
  <rect x="127.5" y="107.5" width="7.9" height="7.9" fill="#e8eaf1"/>
  <rect x="127.5" y="115.4" width="7.9" height="7.9" fill="#dadfea"/>
  <rect x="127.5" y="123.3" width="7.9" height="7.9" fill="#cfd5e4"/>
  <rect x="127.5" y="131.2" width="7.9" height="7.9" fill="#c6cde0"/>
  <rect x="127.5" y="139.2" width="7.9" height="7.9" fill="#c0c8dd"/>
  <rect x="127.5" y="147.1" width="7.9" height="7.9" fill="#bdc5db"/>
  <rect x="127.5" y="155.0" width="7.9" height="7.9" fill="#bdc5db"/>
  <rect x="127.5" y="162.9" width="7.9" height="7.9" fill="#c0c8dd"/>
  <rect x="127.5" y="170.8" width="7.9" height="7.9" fill="#c6cde0"/>
  <rect x="127.5" y="178.8" width="7.9" height="7.9" fill="#cfd5e4"/>
  <rect x="127.5" y="186.7" width="7.9" height="7.9" fill="#dadfea"/>
  <rect x="127.5" y="194.6" width="7.9" height="7.9" fill="#e8eaf1"/>
  <rect x="127.5" y="202.5" width="7.9" height="7.9" fill="#f7f8f8"/>
  <rect x="127.5" y="210.4" width="7.9" height="7.9" fill="#f5edec"/>
  <rect x="127.5" y="218.3" width="7.9" height="7.9" fill="#efdfdc"/>
  <rect x="127.5" y="226.2" width="7.9" height="7.9" fill="#e9d0cb"/>
  <rect x="127.5" y="234.2" width="7.9" height="7.9" fill="#e4c1bb"/>
  <rect x="135.4" y="67.9" width="7.9" height="7.9" fill="#e9cfca"/>
  <rect x="135.4" y="75.8" width="7.9" height="7.9" fill="#efdeda"/>
  <rect x="135.4" y="83.8" width="7.9" height="7.9" fill="#f4eceb"/>
  <rect x="135.4" y="91.7" width="7.9" height="7.9" fill="#f8f8f9"/>
  <rect x="135.4" y="99.6" width="7.9" height="7.9" fill="#e7e9f0"/>
  <rect x="135.4" y="107.5" width="7.9" height="7.9" fill="#d7dce8"/>
  <rect x="135.4" y="115.4" width="7.9" height="7.9" fill="#c9d0e1"/>
  <rect x="135.4" y="123.3" width="7.9" height="7.9" fill="#bec6dc"/>
  <rect x="135.4" y="131.2" width="7.9" height="7.9" fill="#b5bed7"/>
  <rect x="135.4" y="139.2" width="7.9" height="7.9" fill="#afb9d4"/>
  <rect x="135.4" y="147.1" width="7.9" height="7.9" fill="#acb7d3"/>
  <rect x="135.4" y="155.0" width="7.9" height="7.9" fill="#acb7d3"/>
  <rect x="135.4" y="162.9" width="7.9" height="7.9" fill="#afb9d4"/>
  <rect x="135.4" y="170.8" width="7.9" height="7.9" fill="#b5bed7"/>
  <rect x="135.4" y="178.8" width="7.9" height="7.9" fill="#bec6dc"/>
  <rect x="135.4" y="186.7" width="7.9" height="7.9" fill="#c9d0e1"/>
  <rect x="135.4" y="194.6" width="7.9" height="7.9" fill="#d7dce8"/>
  <rect x="135.4" y="202.5" width="7.9" height="7.9" fill="#e7e9f0"/>
  <rect x="135.4" y="210.4" width="7.9" height="7.9" fill="#f8f8f9"/>
  <rect x="135.4" y="218.3" width="7.9" height="7.9" fill="#f4eceb"/>
  <rect x="135.4" y="226.2" width="7.9" height="7.9" fill="#efdeda"/>
  <rect x="135.4" y="234.2" width="7.9" height="7.9" fill="#e9cfca"/>
  <rect x="143.3" y="67.9" width="7.9" height="7.9" fill="#eddad6"/>
  <rect x="143.3" y="75.8" width="7.9" height="7.9" fill="#f3e8e6"/>
  <rect x="143.3" y="83.8" width="7.9" height="7.9" fill="#f9f7f7"/>
  <rect x="143.3" y="91.7" width="7.9" height="7.9" fill="#ebedf2"/>
  <rect x="143.3" y="99.6" width="7.9" height="7.9" fill="#dadeea"/>
  <rect x="143.3" y="107.5" width="7.9" height="7.9" fill="#cad0e2"/>
  <rect x="143.3" y="115.4" width="7.9" height="7.9" fill="#bcc5db"/>
  <rect x="143.3" y="123.3" width="7.9" height="7.9" fill="#b1bbd5"/>
  <rect x="143.3" y="131.2" width="7.9" height="7.9" fill="#a8b3d1"/>
  <rect x="143.3" y="139.2" width="7.9" height="7.9" fill="#a2aece"/>
  <rect x="143.3" y="147.1" width="7.9" height="7.9" fill="#9fabcc"/>
  <rect x="143.3" y="155.0" width="7.9" height="7.9" fill="#9fabcc"/>
  <rect x="143.3" y="162.9" width="7.9" height="7.9" fill="#a2aece"/>
  <rect x="143.3" y="170.8" width="7.9" height="7.9" fill="#a8b3d1"/>
  <rect x="143.3" y="178.8" width="7.9" height="7.9" fill="#b1bbd5"/>
  <rect x="143.3" y="186.7" width="7.9" height="7.9" fill="#bcc5db"/>
  <rect x="143.3" y="194.6" width="7.9" height="7.9" fill="#cad0e2"/>
  <rect x="143.3" y="202.5" width="7.9" height="7.9" fill="#dadeea"/>
  <rect x="143.3" y="210.4" width="7.9" height="7.9" fill="#ebedf2"/>
  <rect x="143.3" y="218.3" width="7.9" height="7.9" fill="#f9f7f7"/>
  <rect x="143.3" y="226.2" width="7.9" height="7.9" fill="#f3e8e6"/>
  <rect x="143.3" y="234.2" width="7.9" height="7.9" fill="#eddad6"/>
  <rect x="151.2" y="60.0" width="7.9" height="7.9" fill="#ebd4d0"/>
  <rect x="151.2" y="67.9" width="7.9" height="7.9" fill="#f0e1df"/>
  <rect x="151.2" y="75.8" width="7.9" height="7.9" fill="#f6f0ef"/>
  <rect x="151.2" y="83.8" width="7.9" height="7.9" fill="#f3f4f6"/>
  <rect x="151.2" y="91.7" width="7.9" height="7.9" fill="#e1e4ed"/>
  <rect x="151.2" y="99.6" width="7.9" height="7.9" fill="#d0d6e5"/>
  <rect x="151.2" y="107.5" width="7.9" height="7.9" fill="#c0c8dd"/>
  <rect x="151.2" y="115.4" width="7.9" height="7.9" fill="#b3bcd6"/>
  <rect x="151.2" y="123.3" width="7.9" height="7.9" fill="#a7b3d0"/>
  <rect x="151.2" y="131.2" width="7.9" height="7.9" fill="#9fabcc"/>
  <rect x="151.2" y="139.2" width="7.9" height="7.9" fill="#99a6c9"/>
  <rect x="151.2" y="147.1" width="7.9" height="7.9" fill="#96a3c8"/>
  <rect x="151.2" y="155.0" width="7.9" height="7.9" fill="#96a3c8"/>
  <rect x="151.2" y="162.9" width="7.9" height="7.9" fill="#99a6c9"/>
  <rect x="151.2" y="170.8" width="7.9" height="7.9" fill="#9fabcc"/>
  <rect x="151.2" y="178.8" width="7.9" height="7.9" fill="#a7b3d0"/>
  <rect x="151.2" y="186.7" width="7.9" height="7.9" fill="#b3bcd6"/>
  <rect x="151.2" y="194.6" width="7.9" height="7.9" fill="#c0c8dd"/>
  <rect x="151.2" y="202.5" width="7.9" height="7.9" fill="#d0d6e5"/>
  <rect x="151.2" y="210.4" width="7.9" height="7.9" fill="#e1e4ed"/>
  <rect x="151.2" y="218.3" width="7.9" height="7.9" fill="#f3f4f6"/>
  <rect x="151.2" y="226.2" width="7.9" height="7.9" fill="#f6f0ef"/>
  <rect x="151.2" y="234.2" width="7.9" height="7.9" fill="#f0e1df"/>
  <rect x="151.2" y="242.1" width="7.9" height="7.9" fill="#ebd4d0"/>
  <rect x="159.2" y="60.0" width="7.9" height="7.9" fill="#edd9d5"/>
  <rect x="159.2" y="67.9" width="7.9" height="7.9" fill="#f2e7e4"/>
  <rect x="159.2" y="75.8" width="7.9" height="7.9" fill="#f8f5f5"/>
  <rect x="159.2" y="83.8" width="7.9" height="7.9" fill="#edeef3"/>
  <rect x="159.2" y="91.7" width="7.9" height="7.9" fill="#dbdfea"/>
  <rect x="159.2" y="99.6" width="7.9" height="7.9" fill="#cad0e2"/>
  <rect x="159.2" y="107.5" width="7.9" height="7.9" fill="#bac3da"/>
  <rect x="159.2" y="115.4" width="7.9" height="7.9" fill="#adb7d3"/>
  <rect x="159.2" y="123.3" width="7.9" height="7.9" fill="#a1adcd"/>
  <rect x="159.2" y="131.2" width="7.9" height="7.9" fill="#98a6c9"/>
  <rect x="159.2" y="139.2" width="7.9" height="7.9" fill="#92a0c6"/>
  <rect x="159.2" y="147.1" width="7.9" height="7.9" fill="#8f9ec4"/>
  <rect x="159.2" y="155.0" width="7.9" height="7.9" fill="#8f9ec4"/>
  <rect x="159.2" y="162.9" width="7.9" height="7.9" fill="#92a0c6"/>
  <rect x="159.2" y="170.8" width="7.9" height="7.9" fill="#98a6c9"/>
  <rect x="159.2" y="178.8" width="7.9" height="7.9" fill="#a1adcd"/>
  <rect x="159.2" y="186.7" width="7.9" height="7.9" fill="#adb7d3"/>
  <rect x="159.2" y="194.6" width="7.9" height="7.9" fill="#bac3da"/>
  <rect x="159.2" y="202.5" width="7.9" height="7.9" fill="#cad0e2"/>
  <rect x="159.2" y="210.4" width="7.9" height="7.9" fill="#dbdfea"/>
  <rect x="159.2" y="218.3" width="7.9" height="7.9" fill="#edeef3"/>
  <rect x="159.2" y="226.2" width="7.9" height="7.9" fill="#f8f5f5"/>
  <rect x="159.2" y="234.2" width="7.9" height="7.9" fill="#f2e7e4"/>
  <rect x="159.2" y="242.1" width="7.9" height="7.9" fill="#edd9d5"/>
  <rect x="167.1" y="60.0" width="7.9" height="7.9" fill="#eedbd8"/>
  <rect x="167.1" y="67.9" width="7.9" height="7.9" fill="#f3e9e7"/>
  <rect x="167.1" y="75.8" width="7.9" height="7.9" fill="#f9f8f7"/>
  <rect x="167.1" y="83.8" width="7.9" height="7.9" fill="#eaecf2"/>
  <rect x="167.1" y="91.7" width="7.9" height="7.9" fill="#d8dce9"/>
  <rect x="167.1" y="99.6" width="7.9" height="7.9" fill="#c7cee0"/>
  <rect x="167.1" y="107.5" width="7.9" height="7.9" fill="#b7c0d8"/>
  <rect x="167.1" y="115.4" width="7.9" height="7.9" fill="#aab4d2"/>
  <rect x="167.1" y="123.3" width="7.9" height="7.9" fill="#9eabcc"/>
  <rect x="167.1" y="131.2" width="7.9" height="7.9" fill="#95a3c7"/>
  <rect x="167.1" y="139.2" width="7.9" height="7.9" fill="#8f9ec4"/>
  <rect x="167.1" y="147.1" width="7.9" height="7.9" fill="#8c9bc3"/>
  <rect x="167.1" y="155.0" width="7.9" height="7.9" fill="#8c9bc3"/>
  <rect x="167.1" y="162.9" width="7.9" height="7.9" fill="#8f9ec4"/>
  <rect x="167.1" y="170.8" width="7.9" height="7.9" fill="#95a3c7"/>
  <rect x="167.1" y="178.8" width="7.9" height="7.9" fill="#9eabcc"/>
  <rect x="167.1" y="186.7" width="7.9" height="7.9" fill="#aab4d2"/>
  <rect x="167.1" y="194.6" width="7.9" height="7.9" fill="#b7c0d8"/>
  <rect x="167.1" y="202.5" width="7.9" height="7.9" fill="#c7cee0"/>
  <rect x="167.1" y="210.4" width="7.9" height="7.9" fill="#d8dce9"/>
  <rect x="167.1" y="218.3" width="7.9" height="7.9" fill="#eaecf2"/>
  <rect x="167.1" y="226.2" width="7.9" height="7.9" fill="#f9f8f7"/>
  <rect x="167.1" y="234.2" width="7.9" height="7.9" fill="#f3e9e7"/>
  <rect x="167.1" y="242.1" width="7.9" height="7.9" fill="#eedbd8"/>
  <rect x="175.0" y="60.0" width="7.9" height="7.9" fill="#eedbd8"/>
  <rect x="175.0" y="67.9" width="7.9" height="7.9" fill="#f3e9e7"/>
  <rect x="175.0" y="75.8" width="7.9" height="7.9" fill="#f9f8f7"/>
  <rect x="175.0" y="83.8" width="7.9" height="7.9" fill="#eaecf2"/>
  <rect x="175.0" y="91.7" width="7.9" height="7.9" fill="#d8dce9"/>
  <rect x="175.0" y="99.6" width="7.9" height="7.9" fill="#c7cee0"/>
  <rect x="175.0" y="107.5" width="7.9" height="7.9" fill="#b7c0d8"/>
  <rect x="175.0" y="115.4" width="7.9" height="7.9" fill="#aab4d2"/>
  <rect x="175.0" y="123.3" width="7.9" height="7.9" fill="#9eabcc"/>
  <rect x="175.0" y="131.2" width="7.9" height="7.9" fill="#95a3c7"/>
  <rect x="175.0" y="139.2" width="7.9" height="7.9" fill="#8f9ec4"/>
  <rect x="175.0" y="147.1" width="7.9" height="7.9" fill="#8c9bc3"/>
  <rect x="175.0" y="155.0" width="7.9" height="7.9" fill="#8c9bc3"/>
  <rect x="175.0" y="162.9" width="7.9" height="7.9" fill="#8f9ec4"/>
  <rect x="175.0" y="170.8" width="7.9" height="7.9" fill="#95a3c7"/>
  <rect x="175.0" y="178.8" width="7.9" height="7.9" fill="#9eabcc"/>
  <rect x="175.0" y="186.7" width="7.9" height="7.9" fill="#aab4d2"/>
  <rect x="175.0" y="194.6" width="7.9" height="7.9" fill="#b7c0d8"/>
  <rect x="175.0" y="202.5" width="7.9" height="7.9" fill="#c7cee0"/>
  <rect x="175.0" y="210.4" width="7.9" height="7.9" fill="#d8dce9"/>
  <rect x="175.0" y="218.3" width="7.9" height="7.9" fill="#eaecf2"/>
  <rect x="175.0" y="226.2" width="7.9" height="7.9" fill="#f9f8f7"/>
  <rect x="175.0" y="234.2" width="7.9" height="7.9" fill="#f3e9e7"/>
  <rect x="175.0" y="242.1" width="7.9" height="7.9" fill="#eedbd8"/>
  <rect x="182.9" y="60.0" width="7.9" height="7.9" fill="#edd9d5"/>
  <rect x="182.9" y="67.9" width="7.9" height="7.9" fill="#f2e7e4"/>
  <rect x="182.9" y="75.8" width="7.9" height="7.9" fill="#f8f5f5"/>
  <rect x="182.9" y="83.8" width="7.9" height="7.9" fill="#edeef3"/>
  <rect x="182.9" y="91.7" width="7.9" height="7.9" fill="#dbdfea"/>
  <rect x="182.9" y="99.6" width="7.9" height="7.9" fill="#cad0e2"/>
  <rect x="182.9" y="107.5" width="7.9" height="7.9" fill="#bac3da"/>
  <rect x="182.9" y="115.4" width="7.9" height="7.9" fill="#adb7d3"/>
  <rect x="182.9" y="123.3" width="7.9" height="7.9" fill="#a1adcd"/>
  <rect x="182.9" y="131.2" width="7.9" height="7.9" fill="#98a6c9"/>
  <rect x="182.9" y="139.2" width="7.9" height="7.9" fill="#92a0c6"/>
  <rect x="182.9" y="147.1" width="7.9" height="7.9" fill="#8f9ec4"/>
  <rect x="182.9" y="155.0" width="7.9" height="7.9" fill="#8f9ec4"/>
  <rect x="182.9" y="162.9" width="7.9" height="7.9" fill="#92a0c6"/>
  <rect x="182.9" y="170.8" width="7.9" height="7.9" fill="#98a6c9"/>
  <rect x="182.9" y="178.8" width="7.9" height="7.9" fill="#a1adcd"/>
  <rect x="182.9" y="186.7" width="7.9" height="7.9" fill="#adb7d3"/>
  <rect x="182.9" y="194.6" width="7.9" height="7.9" fill="#bac3da"/>
  <rect x="182.9" y="202.5" width="7.9" height="7.9" fill="#cad0e2"/>
  <rect x="182.9" y="210.4" width="7.9" height="7.9" fill="#dbdfea"/>
  <rect x="182.9" y="218.3" width="7.9" height="7.9" fill="#edeef3"/>
  <rect x="182.9" y="226.2" width="7.9" height="7.9" fill="#f8f5f5"/>
  <rect x="182.9" y="234.2" width="7.9" height="7.9" fill="#f2e7e4"/>
  <rect x="182.9" y="242.1" width="7.9" height="7.9" fill="#edd9d5"/>
  <rect x="190.8" y="60.0" width="7.9" height="7.9" fill="#ebd4d0"/>
  <rect x="190.8" y="67.9" width="7.9" height="7.9" fill="#f0e1df"/>
  <rect x="190.8" y="75.8" width="7.9" height="7.9" fill="#f6f0ef"/>
  <rect x="190.8" y="83.8" width="7.9" height="7.9" fill="#f3f4f6"/>
  <rect x="190.8" y="91.7" width="7.9" height="7.9" fill="#e1e4ed"/>
  <rect x="190.8" y="99.6" width="7.9" height="7.9" fill="#d0d6e5"/>
  <rect x="190.8" y="107.5" width="7.9" height="7.9" fill="#c0c8dd"/>
  <rect x="190.8" y="115.4" width="7.9" height="7.9" fill="#b3bcd6"/>
  <rect x="190.8" y="123.3" width="7.9" height="7.9" fill="#a7b3d0"/>
  <rect x="190.8" y="131.2" width="7.9" height="7.9" fill="#9fabcc"/>
  <rect x="190.8" y="139.2" width="7.9" height="7.9" fill="#99a6c9"/>
  <rect x="190.8" y="147.1" width="7.9" height="7.9" fill="#96a3c8"/>
  <rect x="190.8" y="155.0" width="7.9" height="7.9" fill="#96a3c8"/>
  <rect x="190.8" y="162.9" width="7.9" height="7.9" fill="#99a6c9"/>
  <rect x="190.8" y="170.8" width="7.9" height="7.9" fill="#9fabcc"/>
  <rect x="190.8" y="178.8" width="7.9" height="7.9" fill="#a7b3d0"/>
  <rect x="190.8" y="186.7" width="7.9" height="7.9" fill="#b3bcd6"/>
  <rect x="190.8" y="194.6" width="7.9" height="7.9" fill="#c0c8dd"/>
  <rect x="190.8" y="202.5" width="7.9" height="7.9" fill="#d0d6e5"/>
  <rect x="190.8" y="210.4" width="7.9" height="7.9" fill="#e1e4ed"/>
  <rect x="190.8" y="218.3" width="7.9" height="7.9" fill="#f3f4f6"/>
  <rect x="190.8" y="226.2" width="7.9" height="7.9" fill="#f6f0ef"/>
  <rect x="190.8" y="234.2" width="7.9" height="7.9" fill="#f0e1df"/>
  <rect x="190.8" y="242.1" width="7.9" height="7.9" fill="#ebd4d0"/>
  <rect x="198.8" y="67.9" width="7.9" height="7.9" fill="#eddad6"/>
  <rect x="198.8" y="75.8" width="7.9" height="7.9" fill="#f3e8e6"/>
  <rect x="198.8" y="83.8" width="7.9" height="7.9" fill="#f9f7f7"/>
  <rect x="198.8" y="91.7" width="7.9" height="7.9" fill="#ebedf2"/>
  <rect x="198.8" y="99.6" width="7.9" height="7.9" fill="#dadeea"/>
  <rect x="198.8" y="107.5" width="7.9" height="7.9" fill="#cad0e2"/>
  <rect x="198.8" y="115.4" width="7.9" height="7.9" fill="#bcc5db"/>
  <rect x="198.8" y="123.3" width="7.9" height="7.9" fill="#b1bbd5"/>
  <rect x="198.8" y="131.2" width="7.9" height="7.9" fill="#a8b3d1"/>
  <rect x="198.8" y="139.2" width="7.9" height="7.9" fill="#a2aece"/>
  <rect x="198.8" y="147.1" width="7.9" height="7.9" fill="#9fabcc"/>
  <rect x="198.8" y="155.0" width="7.9" height="7.9" fill="#9fabcc"/>
  <rect x="198.8" y="162.9" width="7.9" height="7.9" fill="#a2aece"/>
  <rect x="198.8" y="170.8" width="7.9" height="7.9" fill="#a8b3d1"/>
  <rect x="198.8" y="178.8" width="7.9" height="7.9" fill="#b1bbd5"/>
  <rect x="198.8" y="186.7" width="7.9" height="7.9" fill="#bcc5db"/>
  <rect x="198.8" y="194.6" width="7.9" height="7.9" fill="#cad0e2"/>
  <rect x="198.8" y="202.5" width="7.9" height="7.9" fill="#dadeea"/>
  <rect x="198.8" y="210.4" width="7.9" height="7.9" fill="#ebedf2"/>
  <rect x="198.8" y="218.3" width="7.9" height="7.9" fill="#f9f7f7"/>
  <rect x="198.8" y="226.2" width="7.9" height="7.9" fill="#f3e8e6"/>
  <rect x="198.8" y="234.2" width="7.9" height="7.9" fill="#eddad6"/>
  <rect x="206.7" y="67.9" width="7.9" height="7.9" fill="#e9cfca"/>
  <rect x="206.7" y="75.8" width="7.9" height="7.9" fill="#efdeda"/>
  <rect x="206.7" y="83.8" width="7.9" height="7.9" fill="#f4eceb"/>
  <rect x="206.7" y="91.7" width="7.9" height="7.9" fill="#f8f8f9"/>
  <rect x="206.7" y="99.6" width="7.9" height="7.9" fill="#e7e9f0"/>
  <rect x="206.7" y="107.5" width="7.9" height="7.9" fill="#d7dce8"/>
  <rect x="206.7" y="115.4" width="7.9" height="7.9" fill="#c9d0e1"/>
  <rect x="206.7" y="123.3" width="7.9" height="7.9" fill="#bec6dc"/>
  <rect x="206.7" y="131.2" width="7.9" height="7.9" fill="#b5bed7"/>
  <rect x="206.7" y="139.2" width="7.9" height="7.9" fill="#afb9d4"/>
  <rect x="206.7" y="147.1" width="7.9" height="7.9" fill="#acb7d3"/>
  <rect x="206.7" y="155.0" width="7.9" height="7.9" fill="#acb7d3"/>
  <rect x="206.7" y="162.9" width="7.9" height="7.9" fill="#afb9d4"/>
  <rect x="206.7" y="170.8" width="7.9" height="7.9" fill="#b5bed7"/>
  <rect x="206.7" y="178.8" width="7.9" height="7.9" fill="#bec6dc"/>
  <rect x="206.7" y="186.7" width="7.9" height="7.9" fill="#c9d0e1"/>
  <rect x="206.7" y="194.6" width="7.9" height="7.9" fill="#d7dce8"/>
  <rect x="206.7" y="202.5" width="7.9" height="7.9" fill="#e7e9f0"/>
  <rect x="206.7" y="210.4" width="7.9" height="7.9" fill="#f8f8f9"/>
  <rect x="206.7" y="218.3" width="7.9" height="7.9" fill="#f4eceb"/>
  <rect x="206.7" y="226.2" width="7.9" height="7.9" fill="#efdeda"/>
  <rect x="206.7" y="234.2" width="7.9" height="7.9" fill="#e9cfca"/>
  <rect x="214.6" y="67.9" width="7.9" height="7.9" fill="#e4c1bb"/>
  <rect x="214.6" y="75.8" width="7.9" height="7.9" fill="#e9d0cb"/>
  <rect x="214.6" y="83.8" width="7.9" height="7.9" fill="#efdfdc"/>
  <rect x="214.6" y="91.7" width="7.9" height="7.9" fill="#f5edec"/>
  <rect x="214.6" y="99.6" width="7.9" height="7.9" fill="#f7f8f8"/>
  <rect x="214.6" y="107.5" width="7.9" height="7.9" fill="#e8eaf1"/>
  <rect x="214.6" y="115.4" width="7.9" height="7.9" fill="#dadfea"/>
  <rect x="214.6" y="123.3" width="7.9" height="7.9" fill="#cfd5e4"/>
  <rect x="214.6" y="131.2" width="7.9" height="7.9" fill="#c6cde0"/>
  <rect x="214.6" y="139.2" width="7.9" height="7.9" fill="#c0c8dd"/>
  <rect x="214.6" y="147.1" width="7.9" height="7.9" fill="#bdc5db"/>
  <rect x="214.6" y="155.0" width="7.9" height="7.9" fill="#bdc5db"/>
  <rect x="214.6" y="162.9" width="7.9" height="7.9" fill="#c0c8dd"/>
  <rect x="214.6" y="170.8" width="7.9" height="7.9" fill="#c6cde0"/>
  <rect x="214.6" y="178.8" width="7.9" height="7.9" fill="#cfd5e4"/>
  <rect x="214.6" y="186.7" width="7.9" height="7.9" fill="#dadfea"/>
  <rect x="214.6" y="194.6" width="7.9" height="7.9" fill="#e8eaf1"/>
  <rect x="214.6" y="202.5" width="7.9" height="7.9" fill="#f7f8f8"/>
  <rect x="214.6" y="210.4" width="7.9" height="7.9" fill="#f5edec"/>
  <rect x="214.6" y="218.3" width="7.9" height="7.9" fill="#efdfdc"/>
  <rect x="214.6" y="226.2" width="7.9" height="7.9" fill="#e9d0cb"/>
  <rect x="214.6" y="234.2" width="7.9" height="7.9" fill="#e4c1bb"/>
  <rect x="222.5" y="75.8" width="7.9" height="7.9" fill="#e3beb8"/>
  <rect x="222.5" y="83.8" width="7.9" height="7.9" fill="#e8cdc8"/>
  <rect x="222.5" y="91.7" width="7.9" height="7.9" fill="#eedcd9"/>
  <rect x="222.5" y="99.6" width="7.9" height="7.9" fill="#f3eae8"/>
  <rect x="222.5" y="107.5" width="7.9" height="7.9" fill="#f8f7f6"/>
  <rect x="222.5" y="115.4" width="7.9" height="7.9" fill="#eff1f4"/>
  <rect x="222.5" y="123.3" width="7.9" height="7.9" fill="#e4e7ef"/>
  <rect x="222.5" y="131.2" width="7.9" height="7.9" fill="#dbdfea"/>
  <rect x="222.5" y="139.2" width="7.9" height="7.9" fill="#d5dae7"/>
  <rect x="222.5" y="147.1" width="7.9" height="7.9" fill="#d2d7e6"/>
  <rect x="222.5" y="155.0" width="7.9" height="7.9" fill="#d2d7e6"/>
  <rect x="222.5" y="162.9" width="7.9" height="7.9" fill="#d5dae7"/>
  <rect x="222.5" y="170.8" width="7.9" height="7.9" fill="#dbdfea"/>
  <rect x="222.5" y="178.8" width="7.9" height="7.9" fill="#e4e7ef"/>
  <rect x="222.5" y="186.7" width="7.9" height="7.9" fill="#eff1f4"/>
  <rect x="222.5" y="194.6" width="7.9" height="7.9" fill="#f8f7f6"/>
  <rect x="222.5" y="202.5" width="7.9" height="7.9" fill="#f3eae8"/>
  <rect x="222.5" y="210.4" width="7.9" height="7.9" fill="#eedcd9"/>
  <rect x="222.5" y="218.3" width="7.9" height="7.9" fill="#e8cdc8"/>
  <rect x="222.5" y="226.2" width="7.9" height="7.9" fill="#e3beb8"/>
  <rect x="230.4" y="83.8" width="7.9" height="7.9" fill="#e0b8b1"/>
  <rect x="230.4" y="91.7" width="7.9" height="7.9" fill="#e6c7c1"/>
  <rect x="230.4" y="99.6" width="7.9" height="7.9" fill="#ebd5d1"/>
  <rect x="230.4" y="107.5" width="7.9" height="7.9" fill="#f0e2df"/>
  <rect x="230.4" y="115.4" width="7.9" height="7.9" fill="#f5edeb"/>
  <rect x="230.4" y="123.3" width="7.9" height="7.9" fill="#f8f6f6"/>
  <rect x="230.4" y="131.2" width="7.9" height="7.9" fill="#f5f6f7"/>
  <rect x="230.4" y="139.2" width="7.9" height="7.9" fill="#eff0f4"/>
  <rect x="230.4" y="147.1" width="7.9" height="7.9" fill="#eceef3"/>
  <rect x="230.4" y="155.0" width="7.9" height="7.9" fill="#eceef3"/>
  <rect x="230.4" y="162.9" width="7.9" height="7.9" fill="#eff0f4"/>
  <rect x="230.4" y="170.8" width="7.9" height="7.9" fill="#f5f6f7"/>
  <rect x="230.4" y="178.8" width="7.9" height="7.9" fill="#f8f6f6"/>
  <rect x="230.4" y="186.7" width="7.9" height="7.9" fill="#f5edeb"/>
  <rect x="230.4" y="194.6" width="7.9" height="7.9" fill="#f0e2df"/>
  <rect x="230.4" y="202.5" width="7.9" height="7.9" fill="#ebd5d1"/>
  <rect x="230.4" y="210.4" width="7.9" height="7.9" fill="#e6c7c1"/>
  <rect x="230.4" y="218.3" width="7.9" height="7.9" fill="#e0b8b1"/>
  <rect x="238.3" y="91.7" width="7.9" height="7.9" fill="#dcaea5"/>
  <rect x="238.3" y="99.6" width="7.9" height="7.9" fill="#e1bbb5"/>
  <rect x="238.3" y="107.5" width="7.9" height="7.9" fill="#e6c8c3"/>
  <rect x="238.3" y="115.4" width="7.9" height="7.9" fill="#ebd3cf"/>
  <rect x="238.3" y="123.3" width="7.9" height="7.9" fill="#eeddd9"/>
  <rect x="238.3" y="131.2" width="7.9" height="7.9" fill="#f1e4e1"/>
  <rect x="238.3" y="139.2" width="7.9" height="7.9" fill="#f3e9e7"/>
  <rect x="238.3" y="147.1" width="7.9" height="7.9" fill="#f4ebea"/>
  <rect x="238.3" y="155.0" width="7.9" height="7.9" fill="#f4ebea"/>
  <rect x="238.3" y="162.9" width="7.9" height="7.9" fill="#f3e9e7"/>
  <rect x="238.3" y="170.8" width="7.9" height="7.9" fill="#f1e4e1"/>
  <rect x="238.3" y="178.8" width="7.9" height="7.9" fill="#eeddd9"/>
  <rect x="238.3" y="186.7" width="7.9" height="7.9" fill="#ebd3cf"/>
  <rect x="238.3" y="194.6" width="7.9" height="7.9" fill="#e6c8c3"/>
  <rect x="238.3" y="202.5" width="7.9" height="7.9" fill="#e1bbb5"/>
  <rect x="238.3" y="210.4" width="7.9" height="7.9" fill="#dcaea5"/>
  <rect x="246.2" y="99.6" width="7.9" height="7.9" fill="#d69d93"/>
  <rect x="246.2" y="107.5" width="7.9" height="7.9" fill="#dbaaa1"/>
  <rect x="246.2" y="115.4" width="7.9" height="7.9" fill="#dfb5ae"/>
  <rect x="246.2" y="123.3" width="7.9" height="7.9" fill="#e3bfb8"/>
  <rect x="246.2" y="131.2" width="7.9" height="7.9" fill="#e5c6c0"/>
  <rect x="246.2" y="139.2" width="7.9" height="7.9" fill="#e7cbc5"/>
  <rect x="246.2" y="147.1" width="7.9" height="7.9" fill="#e8cdc8"/>
  <rect x="246.2" y="155.0" width="7.9" height="7.9" fill="#e8cdc8"/>
  <rect x="246.2" y="162.9" width="7.9" height="7.9" fill="#e7cbc5"/>
  <rect x="246.2" y="170.8" width="7.9" height="7.9" fill="#e5c6c0"/>
  <rect x="246.2" y="178.8" width="7.9" height="7.9" fill="#e3bfb8"/>
  <rect x="246.2" y="186.7" width="7.9" height="7.9" fill="#dfb5ae"/>
  <rect x="246.2" y="194.6" width="7.9" height="7.9" fill="#dbaaa1"/>
  <rect x="246.2" y="202.5" width="7.9" height="7.9" fill="#d69d93"/>
  <rect x="254.2" y="107.5" width="7.9" height="7.9" fill="#cd877a"/>
  <rect x="254.2" y="115.4" width="7.9" height="7.9" fill="#d19286"/>
  <rect x="254.2" y="123.3" width="7.9" height="7.9" fill="#d59b91"/>
  <rect x="254.2" y="131.2" width="7.9" height="7.9" fill="#d8a299"/>
  <rect x="254.2" y="139.2" width="7.9" height="7.9" fill="#daa79e"/>
  <rect x="254.2" y="147.1" width="7.9" height="7.9" fill="#daaaa1"/>
  <rect x="254.2" y="155.0" width="7.9" height="7.9" fill="#daaaa1"/>
  <rect x="254.2" y="162.9" width="7.9" height="7.9" fill="#daa79e"/>
  <rect x="254.2" y="170.8" width="7.9" height="7.9" fill="#d8a299"/>
  <rect x="254.2" y="178.8" width="7.9" height="7.9" fill="#d59b91"/>
  <rect x="254.2" y="186.7" width="7.9" height="7.9" fill="#d19286"/>
  <rect x="254.2" y="194.6" width="7.9" height="7.9" fill="#cd877a"/>
  <rect x="262.1" y="131.2" width="7.9" height="7.9" fill="#c8796b"/>
  <rect x="262.1" y="139.2" width="7.9" height="7.9" fill="#c97e70"/>
  <rect x="262.1" y="147.1" width="7.9" height="7.9" fill="#ca8073"/>
  <rect x="262.1" y="155.0" width="7.9" height="7.9" fill="#ca8073"/>
  <rect x="262.1" y="162.9" width="7.9" height="7.9" fill="#c97e70"/>
  <rect x="262.1" y="170.8" width="7.9" height="7.9" fill="#c8796b"/>
  <circle cx="175" cy="155" r="95" fill="none" stroke="#1e3a8a" stroke-width="1.4"/>
  <text x="175" y="268" text-anchor="middle" class="sub">W(u,v) (waves)</text>
</svg>
