<?xml version="1.0" encoding="UTF-8"?>
<svg xmlns="http://www.w3.org/2000/svg" viewBox="0 0 360 280" font-family="Arial, Helvetica, sans-serif">
  <defs>
    <style>
      .ttl   { fill:#111827; font-size:14px; font-weight:700; }
      .sub   { fill:#374151; font-size:10.5px; }
      .axis  { stroke:#9ca3af; stroke-width:1; }
      .grid  { stroke:#cbd5e1; stroke-width:0.8; stroke-dasharray:2,2; }
      .pt    { fill:#b91c1c; stroke:none; }
      .pup   { fill:#eff6ff; stroke:#1e3a8a; stroke-width:1.4; }
      .lblx  { fill:#374151; font-size:10px; }
      .nm    { stroke:#1e3a8a; stroke-width:1.8; fill:none; }
      .nm2   { stroke:#15803d; stroke-width:1.8; fill:none; }
      .nm3   { stroke:#b45309; stroke-width:1.8; fill:none; }
      .arr   { stroke:#374151; stroke-width:1; fill:none; }
    </style>
    <marker id="arr" viewBox="0 0 10 10" refX="9" refY="5" markerWidth="6" markerHeight="6" orient="auto">
      <path d="M0,0 L10,5 L0,10 Z" fill="#374151"/>
    </marker>
  </defs>
  <text x="180" y="20" text-anchor="middle" class="ttl">Branch Field</text>
  <text x="180" y="36" text-anchor="middle" class="sub">Intensity, phase and TEM₀₀ overlap on a branch</text>
  <line x1="45" y1="230" x2="325" y2="230" class="axis"/>
  <line x1="45" y1="230" x2="45" y2="60" class="axis"/>
  <text x="325" y="244" text-anchor="end" class="lblx">x (mm)</text>
  <polyline points="45.0,229.9 47.3,229.9 49.7,229.9 52.0,229.9 54.3,229.8 56.7,229.8 59.0,229.7 61.3,229.6 63.7,229.6 66.0,229.4 68.3,229.3 70.7,229.1 73.0,228.9 75.3,228.7 77.7,228.4 80.0,228.1 82.3,227.7 84.7,227.2 87.0,226.7 89.3,226.0 91.7,225.3 94.0,224.4 96.3,223.4 98.7,222.2 101.0,220.9 103.3,219.5 105.7,217.8 108.0,215.9 110.3,213.8 112.7,211.5 115.0,208.9 117.3,206.0 119.7,202.9 122.0,199.6 124.3,195.9 126.7,192.0 129.0,187.8 131.3,183.3 133.7,178.6 136.0,173.7 138.3,168.5 140.7,163.2 143.0,157.7 145.3,152.1 147.7,146.4 150.0,140.7 152.3,134.9 154.7,129.3 157.0,123.8 159.3,118.4 161.7,113.3 164.0,108.5 166.3,104.0 168.7,99.9 171.0,96.2 173.3,93.0 175.7,90.4 178.0,88.3 180.3,86.7 182.7,85.8 185.0,85.5 187.3,85.8 189.7,86.7 192.0,88.3 194.3,90.4 196.7,93.0 199.0,96.2 201.3,99.9 203.7,104.0 206.0,108.5 208.3,113.3 210.7,118.4 213.0,123.8 215.3,129.3 217.7,134.9 220.0,140.7 222.3,146.4 224.7,152.1 227.0,157.7 229.3,163.2 231.7,168.5 234.0,173.7 236.3,178.6 238.7,183.3 241.0,187.8 243.3,192.0 245.7,195.9 248.0,199.6 250.3,202.9 252.7,206.0 255.0,208.9 257.3,211.5 259.7,213.8 262.0,215.9 264.3,217.8 266.7,219.5 269.0,220.9 271.3,222.2 273.7,223.4 276.0,224.4 278.3,225.3 280.7,226.0 283.0,226.7 285.3,227.2 287.7,227.7 290.0,228.1 292.3,228.4 294.7,228.7 297.0,228.9 299.3,229.1 301.7,229.3 304.0,229.4 306.3,229.6 308.7,229.6 311.0,229.7 313.3,229.8 315.7,229.8 318.0,229.9 320.3,229.9 322.7,229.9 325.0,229.9" stroke="#374151" stroke-width="1.4" stroke-dasharray="4,3" fill="none"/>
  <polyline points="45.0,230.0 47.3,230.0 49.7,230.0 52.0,230.0 54.3,230.0 56.7,230.0 59.0,230.0 61.3,229.9 63.7,229.9 66.0,229.9 68.3,229.9 70.7,229.8 73.0,229.8 75.3,229.7 77.7,229.6 80.0,229.5 82.3,229.3 84.7,229.2 87.0,228.9 89.3,228.6 91.7,228.3 94.0,227.9 96.3,227.4 98.7,226.8 101.0,226.1 103.3,225.2 105.7,224.2 108.0,223.0 110.3,221.6 112.7,220.0 115.0,218.1 117.3,216.0 119.7,213.6 122.0,210.9 124.3,207.9 126.7,204.5 129.0,200.8 131.3,196.8 133.7,192.3 136.0,187.6 138.3,182.4 140.7,177.0 143.0,171.3 145.3,165.3 147.7,159.0 150.0,152.7 152.3,146.2 154.7,139.6 157.0,133.1 159.3,126.7 161.7,120.5 164.0,114.6 166.3,109.0 168.7,103.9 171.0,99.3 173.3,95.2 175.7,91.8 178.0,89.1 180.3,87.1 182.7,85.9 185.0,85.5 187.3,85.9 189.7,87.1 192.0,89.1 194.3,91.8 196.7,95.2 199.0,99.3 201.3,103.9 203.7,109.0 206.0,114.6 208.3,120.5 210.7,126.7 213.0,133.1 215.3,139.6 217.7,146.2 220.0,152.7 222.3,159.0 224.7,165.3 227.0,171.3 229.3,177.0 231.7,182.4 234.0,187.6 236.3,192.3 238.7,196.8 241.0,200.8 243.3,204.5 245.7,207.9 248.0,210.9 250.3,213.6 252.7,216.0 255.0,218.1 257.3,220.0 259.7,221.6 262.0,223.0 264.3,224.2 266.7,225.2 269.0,226.1 271.3,226.8 273.7,227.4 276.0,227.9 278.3,228.3 280.7,228.6 283.0,228.9 285.3,229.2 287.7,229.3 290.0,229.5 292.3,229.6 294.7,229.7 297.0,229.8 299.3,229.8 301.7,229.9 304.0,229.9 306.3,229.9 308.7,229.9 311.0,230.0 313.3,230.0 315.7,230.0 318.0,230.0 320.3,230.0 322.7,230.0 325.0,230.0" stroke="#1e3a8a" stroke-width="2" fill="none"/>
  <polyline points="45.0,192.8 47.3,192.7 49.7,192.5 52.0,192.4 54.3,192.2 56.7,192.1 59.0,191.9 61.3,191.7 63.7,191.5 66.0,191.3 68.3,191.2 70.7,191.0 73.0,190.7 75.3,190.5 77.7,190.3 80.0,190.1 82.3,189.8 84.7,189.6 87.0,189.3 89.3,189.0 91.7,188.7 94.0,188.4 96.3,188.1 98.7,187.8 101.0,187.4 103.3,187.1 105.7,186.7 108.0,186.3 110.3,185.9 112.7,185.4 115.0,184.9 117.3,184.4 119.7,183.9 122.0,183.4 124.3,182.8 126.7,182.2 129.0,181.5 131.3,180.8 133.7,180.1 136.0,179.3 138.3,178.5 140.7,177.6 143.0,176.6 145.3,175.6 147.7,174.5 150.0,173.3 152.3,172.1 154.7,170.8 157.0,169.3 159.3,167.8 161.7,166.2 164.0,164.5 166.3,162.7 168.7,160.8 171.0,158.7 173.3,156.6 175.7,154.4 178.0,152.1 180.3,149.8 182.7,147.4 185.0,145.0 187.3,142.6 189.7,140.2 192.0,137.9 194.3,135.6 196.7,133.4 199.0,131.3 201.3,129.2 203.7,127.3 206.0,125.5 208.3,123.8 210.7,122.2 213.0,120.7 215.3,119.2 217.7,117.9 220.0,116.7 222.3,115.5 224.7,114.4 227.0,113.4 229.3,112.4 231.7,111.5 234.0,110.7 236.3,109.9 238.7,109.2 241.0,108.5 243.3,107.8 245.7,107.2 248.0,106.6 250.3,106.1 252.7,105.6 255.0,105.1 257.3,104.6 259.7,104.1 262.0,103.7 264.3,103.3 266.7,102.9 269.0,102.6 271.3,102.2 273.7,101.9 276.0,101.6 278.3,101.3 280.7,101.0 283.0,100.7 285.3,100.4 287.7,100.2 290.0,99.9 292.3,99.7 294.7,99.5 297.0,99.3 299.3,99.0 301.7,98.8 304.0,98.7 306.3,98.5 308.7,98.3 311.0,98.1 313.3,97.9 315.7,97.8 318.0,97.6 320.3,97.5 322.7,97.3 325.0,97.2" stroke="#15803d" stroke-width="1.6" fill="none"/>
  <text x="49" y="72" class="lblx" fill="#1e3a8a">|E(x)|²</text>
  <text x="49" y="88" class="lblx" fill="#374151">TEM₀₀ template</text>
  <text x="49" y="104" class="lblx" fill="#15803d">arg(E)</text>
  <text x="45" y="274" class="sub">η = | ∫ E*·u_{TEM₀₀} dA |² / ( ∫|E|² dA · ∫|u|² dA )</text>
</svg>
