<?xml version="1.0" encoding="UTF-8"?>
<svg xmlns="http://www.w3.org/2000/svg" viewBox="0 0 720 380" font-family="Arial, Helvetica, sans-serif">
  <defs>
    <marker id="arr" viewBox="0 0 10 10" refX="9" refY="5" markerWidth="6" markerHeight="6" orient="auto">
      <path d="M0,0 L10,5 L0,10 Z" fill="#111827"/>
    </marker>
    <marker id="arrR" viewBox="0 0 10 10" refX="9" refY="5" markerWidth="6" markerHeight="6" orient="auto">
      <path d="M0,0 L10,5 L0,10 Z" fill="#1d4ed8"/>
    </marker>
    <marker id="arrEnv" viewBox="0 0 10 10" refX="9" refY="5" markerWidth="6" markerHeight="6" orient="auto">
      <path d="M0,0 L10,5 L0,10 Z" fill="#b45309"/>
    </marker>
    <style>
      .ttl   { fill:#111827; font-size:16px; font-weight:700; }
      .sub   { fill:#374151; font-size:11.5px; }
      .lbl   { fill:#111827; font-size:12px; }
      .lblb  { fill:#111827; font-size:12px; font-weight:700; }
      .axis  { stroke:#6b7280; stroke-width:1; stroke-dasharray:5,4; }
      .dash  { stroke:#9ca3af; stroke-width:1; stroke-dasharray:4,3; fill:none; }
      .ray   { stroke:#1d4ed8; stroke-width:1.6; fill:none; }
      .rayA  { stroke:#7c3aed; stroke-width:1.6; fill:none; }
      .env   { stroke:#b45309; stroke-width:2; fill:none; }
      .envf  { fill:#b45309; fill-opacity:0.10; stroke:none; }
      .acc   { stroke:#0f766e; stroke-width:1.8; fill:none; }
      .warn  { stroke:#b91c1c; stroke-width:1.6; fill:none; }
      .lens  { stroke:#0ea5e9; stroke-width:2.2; fill:#0ea5e9; fill-opacity:0.10; }
      .mir   { stroke:#475569; stroke-width:2.4; fill:none; }
    </style>
  </defs>
  <text x="360" y="22" text-anchor="middle" class="ttl">f-number  N = f / D    (cone half-angle ≈ 1/(2N))</text>
  <text x="360" y="40" text-anchor="middle" class="sub">small N → fast, more light, shallow depth ;  large N → slow, deep DoF</text>
  <line x1="40" y1="200" x2="680" y2="200" class="axis"/>
  <path d="M 220 100 C 212 150.0, 212 250.0, 220 300 C 228 250.0, 228 150.0, 220 100 Z" fill="#0ea5e9" fill-opacity="0.10" stroke="#0ea5e9" stroke-width="2"/>
  <polygon points="214,103 220,94 226,103" fill="#0ea5e9"/>
  <polygon points="214,297 220,306 226,297" fill="#0ea5e9"/>
  <path d="M 220 100 L 570 200 L 220 300 Z" fill="#1d4ed8" fill-opacity="0.10" stroke="#1d4ed8"/>
  <line x1="220" y1="320" x2="570" y2="320" stroke="#111827" marker-end="url(#arr)" marker-start="url(#arr)"/>
  <text x="395" y="335" text-anchor="middle" class="lblb">f  (effective focal length)</text>
  <line x1="190" y1="100" x2="190" y2="300" stroke="#111827" marker-end="url(#arr)" marker-start="url(#arr)"/>
  <text x="182" y="205" text-anchor="end" class="lblb">D</text>
  <circle cx="570" cy="200" r="3" fill="#0f766e"/>
  <text x="578" y="204" class="lbl">F'</text>
  <text x="360" y="60" text-anchor="middle" class="lbl">Airy disk diameter  d ≈ 2.44 λ N        Diffraction MTF cutoff  ν_c = 1/(λ N)</text>
</svg>
